<?xml version="1.0" encoding="UTF-8" standalone="no"?>
<svg
   xmlns:ns5="http://www.iki.fi/pav/software/textext/"
   xmlns:osb="http://www.openswatchbook.org/uri/2009/osb"
   xmlns:dc="http://purl.org/dc/elements/1.1/"
   xmlns:cc="http://creativecommons.org/ns#"
   xmlns:rdf="http://www.w3.org/1999/02/22-rdf-syntax-ns#"
   xmlns:svg="http://www.w3.org/2000/svg"
   xmlns="http://www.w3.org/2000/svg"
   xmlns:sodipodi="http://sodipodi.sourceforge.net/DTD/sodipodi-0.dtd"
   xmlns:inkscape="http://www.inkscape.org/namespaces/inkscape"
   width="210mm"
   height="148mm"
   viewBox="0 0 210 148"
   version="1.1"
   id="svg8"
   sodipodi:docname="epacioKb.svg"
   inkscape:version="1.0.2 (1.0.2+r75+1)">
  <defs
     id="defs2">
    <marker
       style="overflow:visible"
       id="marker5385"
       refX="0.0"
       refY="0.0"
       orient="auto"
       inkscape:stockid="Arrow1Lstart"
       inkscape:isstock="true">
      <path
         transform="scale(0.8) translate(12.5,0)"
         style="fill-rule:evenodd;stroke:#000000;stroke-width:1pt;stroke-opacity:1;fill:#000000;fill-opacity:1"
         d="M 0.0,0.0 L 5.0,-5.0 L -12.5,0.0 L 5.0,5.0 L 0.0,0.0 z "
         id="path5383" />
    </marker>
    <linearGradient
       id="linearGradient5183"
       osb:paint="solid">
      <stop
         style="stop-color:#010000;stop-opacity:1;"
         offset="0"
         id="stop5181" />
    </linearGradient>
    <rect
       x="223.21869"
       y="11.591765"
       width="48.246505"
       height="11.737962"
       id="rect4498" />
    <rect
       x="173.34176"
       y="67.961015"
       width="13.125573"
       height="22.080434"
       id="rect4488" />
    <marker
       style="overflow:visible"
       id="marker1251"
       refX="0.0"
       refY="0.0"
       orient="auto"
       inkscape:stockid="Arrow1Lstart"
       inkscape:isstock="true"
       inkscape:collect="always">
      <path
         transform="scale(0.8) translate(12.5,0)"
         style="fill-rule:evenodd;stroke:#000000;stroke-width:1pt;stroke-opacity:1;fill:#000000;fill-opacity:1"
         d="M 0.0,0.0 L 5.0,-5.0 L -12.5,0.0 L 5.0,5.0 L 0.0,0.0 z "
         id="path1249" />
    </marker>
    <marker
       style="overflow:visible"
       id="Arrow1Lstart"
       refX="0.0"
       refY="0.0"
       orient="auto"
       inkscape:stockid="Arrow1Lstart"
       inkscape:isstock="true"
       inkscape:collect="always">
      <path
         transform="scale(0.8) translate(12.5,0)"
         style="fill-rule:evenodd;stroke:#000000;stroke-width:1pt;stroke-opacity:1;fill:#000000;fill-opacity:1"
         d="M 0.0,0.0 L 5.0,-5.0 L -12.5,0.0 L 5.0,5.0 L 0.0,0.0 z "
         id="path835" />
    </marker>
    <marker
       style="overflow:visible;"
       id="Arrow1Lend"
       refX="0.0"
       refY="0.0"
       orient="auto"
       inkscape:stockid="Arrow1Lend"
       inkscape:isstock="true">
      <path
         transform="scale(0.8) rotate(180) translate(12.5,0)"
         style="fill-rule:evenodd;stroke:#000000;stroke-width:1pt;stroke-opacity:1;fill:#000000;fill-opacity:1"
         d="M 0.0,0.0 L 5.0,-5.0 L -12.5,0.0 L 5.0,5.0 L 0.0,0.0 z "
         id="path838" />
    </marker>
  </defs>
  <sodipodi:namedview
     id="base"
     pagecolor="#ffffff"
     bordercolor="#666666"
     borderopacity="1.0"
     inkscape:pageopacity="0.0"
     inkscape:pageshadow="2"
     inkscape:zoom="1.127629"
     inkscape:cx="590.70702"
     inkscape:cy="279.68504"
     inkscape:document-units="mm"
     inkscape:current-layer="layer1"
     inkscape:document-rotation="0"
     showgrid="false"
     units="mm"
     inkscape:window-width="1528"
     inkscape:window-height="836"
     inkscape:window-x="72"
     inkscape:window-y="27"
     inkscape:window-maximized="1" />
  <metadata
     id="metadata5">
    <rdf:RDF>
      <cc:Work
         rdf:about="">
        <dc:format>image/svg+xml</dc:format>
        <dc:type
           rdf:resource="http://purl.org/dc/dcmitype/StillImage" />
        <dc:title></dc:title>
      </cc:Work>
    </rdf:RDF>
  </metadata>
  <g
     inkscape:label="Capa 1"
     inkscape:groupmode="layer"
     id="layer1">
    <ellipse
       style="fill:none;fill-opacity:1;stroke:#df2900;stroke-width:0.507866;stroke-miterlimit:4;stroke-dasharray:none;stroke-opacity:1"
       id="path5177"
       cx="80.994934"
       cy="78.755157"
       rx="42.662373"
       ry="38.171654" />
    <path
       style="fill:none;stroke:#000000;stroke-width:0.668658;stroke-linecap:butt;stroke-linejoin:miter;stroke-miterlimit:4;stroke-dasharray:none;stroke-opacity:1;marker-start:url(#Arrow1Lstart)"
       d="M 82.21633,2.8832869 81.365777,141.92768 v 0 0"
       id="path1135" />
    <path
       style="fill:none;stroke:#010000;stroke-width:0.728106;stroke-linecap:butt;stroke-linejoin:miter;stroke-miterlimit:4;stroke-dasharray:none;stroke-opacity:1;marker-start:url(#marker1251)"
       d="M 172.86782,77.475857 7.999098,76.755409 v 0 0"
       id="path1247" />
    <g
       id="g4162"
       transform="translate(-3.7181147,-0.35709559)">
      <ellipse
         style="fill:#78bcdb;fill-opacity:1;stroke:#78bcdb;stroke-width:0.465;stroke-miterlimit:4;stroke-dasharray:none;stroke-opacity:1"
         id="path1307"
         cx="21.755901"
         cy="22.121061"
         rx="3.0836885"
         ry="2.7023017" />
      <ellipse
         style="fill:#78bcdb;fill-opacity:1;stroke:#78bcdb;stroke-width:0.465;stroke-miterlimit:4;stroke-dasharray:none;stroke-opacity:1"
         id="ellipse1309"
         cx="67.461365"
         cy="22.121061"
         rx="3.0836885"
         ry="2.7023017" />
      <ellipse
         style="fill:#78bcdb;fill-opacity:1;stroke:#78bcdb;stroke-width:0.465;stroke-miterlimit:4;stroke-dasharray:none;stroke-opacity:1"
         id="ellipse1311"
         cx="147.44592"
         cy="22.121061"
         rx="3.0836885"
         ry="2.7023017" />
      <ellipse
         style="fill:#78bcdb;fill-opacity:1;stroke:#78bcdb;stroke-width:0.465;stroke-miterlimit:4;stroke-dasharray:none;stroke-opacity:1"
         id="ellipse1313"
         cx="136.01956"
         cy="22.121061"
         rx="3.0836885"
         ry="2.7023017" />
      <ellipse
         style="fill:#78bcdb;fill-opacity:1;stroke:#78bcdb;stroke-width:0.465;stroke-miterlimit:4;stroke-dasharray:none;stroke-opacity:1"
         id="ellipse1315"
         cx="124.5932"
         cy="22.121061"
         rx="3.0836885"
         ry="2.7023017" />
      <ellipse
         style="fill:#78bcdb;fill-opacity:1;stroke:#78bcdb;stroke-width:0.465;stroke-miterlimit:4;stroke-dasharray:none;stroke-opacity:1"
         id="ellipse1317"
         cx="113.16683"
         cy="22.121061"
         rx="3.0836885"
         ry="2.7023017" />
      <ellipse
         style="fill:#78bcdb;fill-opacity:1;stroke:#78bcdb;stroke-width:0.465;stroke-miterlimit:4;stroke-dasharray:none;stroke-opacity:1"
         id="ellipse1319"
         cx="101.74046"
         cy="22.121061"
         rx="3.0836885"
         ry="2.7023017" />
      <ellipse
         style="fill:#78bcdb;fill-opacity:1;stroke:#78bcdb;stroke-width:0.465;stroke-miterlimit:4;stroke-dasharray:none;stroke-opacity:1"
         id="ellipse1321"
         cx="90.314102"
         cy="22.121061"
         rx="3.0836885"
         ry="2.7023017" />
      <ellipse
         style="fill:#78bcdb;fill-opacity:1;stroke:#78bcdb;stroke-width:0.465;stroke-miterlimit:4;stroke-dasharray:none;stroke-opacity:1"
         id="ellipse1323"
         cx="78.887726"
         cy="22.121061"
         rx="3.0836885"
         ry="2.7023017" />
      <ellipse
         style="fill:#78bcdb;fill-opacity:1;stroke:#78bcdb;stroke-width:0.465;stroke-miterlimit:4;stroke-dasharray:none;stroke-opacity:1"
         id="ellipse1325"
         cx="56.034996"
         cy="22.121061"
         rx="3.0836885"
         ry="2.7023017" />
      <ellipse
         style="fill:#78bcdb;fill-opacity:1;stroke:#78bcdb;stroke-width:0.465;stroke-miterlimit:4;stroke-dasharray:none;stroke-opacity:1"
         id="ellipse1327"
         cx="44.608631"
         cy="22.121061"
         rx="3.0836885"
         ry="2.7023017" />
      <ellipse
         style="fill:#78bcdb;fill-opacity:1;stroke:#78bcdb;stroke-width:0.465;stroke-miterlimit:4;stroke-dasharray:none;stroke-opacity:1"
         id="ellipse1329"
         cx="33.182266"
         cy="22.121061"
         rx="3.0836885"
         ry="2.7023017" />
    </g>
    <ellipse
       style="fill:#78bcdb;fill-opacity:1;stroke:#78bcdb;stroke-width:0.465;stroke-miterlimit:4;stroke-dasharray:none;stroke-opacity:1"
       id="ellipse4164"
       cx="18.037786"
       cy="92.98999"
       rx="3.0836885"
       ry="2.7023017" />
    <ellipse
       style="fill:#78bcdb;fill-opacity:1;stroke:#78bcdb;stroke-width:0.465;stroke-miterlimit:4;stroke-dasharray:none;stroke-opacity:1"
       id="ellipse4168"
       cx="143.72781"
       cy="92.98999"
       rx="3.0836885"
       ry="2.7023017" />
    <ellipse
       style="fill:#78bcdb;fill-opacity:1;stroke:#78bcdb;stroke-width:0.465;stroke-miterlimit:4;stroke-dasharray:none;stroke-opacity:1"
       id="ellipse4170"
       cx="132.30145"
       cy="92.98999"
       rx="3.0836885"
       ry="2.7023017" />
    <ellipse
       style="fill:#78bcdb;fill-opacity:1;stroke:#78bcdb;stroke-width:0.465;stroke-miterlimit:4;stroke-dasharray:none;stroke-opacity:1"
       id="ellipse4186"
       cx="29.464151"
       cy="92.98999"
       rx="3.0836885"
       ry="2.7023017" />
    <ellipse
       style="fill:#78bcdb;fill-opacity:1;stroke:#78bcdb;stroke-width:0.465;stroke-miterlimit:4;stroke-dasharray:none;stroke-opacity:1"
       id="ellipse4190"
       cx="18.037786"
       cy="82.814842"
       rx="3.0836885"
       ry="2.7023017" />
    <ellipse
       style="fill:#78bcdb;fill-opacity:1;stroke:#78bcdb;stroke-width:0.465;stroke-miterlimit:4;stroke-dasharray:none;stroke-opacity:1"
       id="ellipse4194"
       cx="143.72781"
       cy="82.814842"
       rx="3.0836885"
       ry="2.7023017" />
    <ellipse
       style="fill:#78bcdb;fill-opacity:1;stroke:#78bcdb;stroke-width:0.465;stroke-miterlimit:4;stroke-dasharray:none;stroke-opacity:1"
       id="ellipse4196"
       cx="132.30145"
       cy="82.814842"
       rx="3.0836885"
       ry="2.7023017" />
    <ellipse
       style="fill:#78bcdb;fill-opacity:1;stroke:#78bcdb;stroke-width:0.465;stroke-miterlimit:4;stroke-dasharray:none;stroke-opacity:1"
       id="ellipse4212"
       cx="29.464151"
       cy="82.814842"
       rx="3.0836885"
       ry="2.7023017" />
    <ellipse
       style="fill:#78bcdb;fill-opacity:1;stroke:#78bcdb;stroke-width:0.465;stroke-miterlimit:4;stroke-dasharray:none;stroke-opacity:1"
       id="ellipse4216"
       cx="18.037786"
       cy="72.639694"
       rx="3.0836885"
       ry="2.7023017" />
    <ellipse
       style="fill:#78bcdb;fill-opacity:1;stroke:#78bcdb;stroke-width:0.465;stroke-miterlimit:4;stroke-dasharray:none;stroke-opacity:1"
       id="ellipse4220"
       cx="143.72781"
       cy="72.639694"
       rx="3.0836885"
       ry="2.7023017" />
    <ellipse
       style="fill:#78bcdb;fill-opacity:1;stroke:#78bcdb;stroke-width:0.465;stroke-miterlimit:4;stroke-dasharray:none;stroke-opacity:1"
       id="ellipse4222"
       cx="132.30145"
       cy="72.639694"
       rx="3.0836885"
       ry="2.7023017" />
    <ellipse
       style="fill:#78bcdb;fill-opacity:1;stroke:#78bcdb;stroke-width:0.465;stroke-miterlimit:4;stroke-dasharray:none;stroke-opacity:1"
       id="ellipse4238"
       cx="29.464151"
       cy="72.639694"
       rx="3.0836885"
       ry="2.7023017" />
    <ellipse
       style="fill:#78bcdb;fill-opacity:1;stroke:#78bcdb;stroke-width:0.465;stroke-miterlimit:4;stroke-dasharray:none;stroke-opacity:1"
       id="ellipse4242"
       cx="18.037786"
       cy="62.46455"
       rx="3.0836885"
       ry="2.7023017" />
    <ellipse
       style="fill:#78bcdb;fill-opacity:1;stroke:#78bcdb;stroke-width:0.465;stroke-miterlimit:4;stroke-dasharray:none;stroke-opacity:1"
       id="ellipse4246"
       cx="143.72781"
       cy="62.46455"
       rx="3.0836885"
       ry="2.7023017" />
    <ellipse
       style="fill:#78bcdb;fill-opacity:1;stroke:#78bcdb;stroke-width:0.465;stroke-miterlimit:4;stroke-dasharray:none;stroke-opacity:1"
       id="ellipse4248"
       cx="132.30145"
       cy="62.46455"
       rx="3.0836885"
       ry="2.7023017" />
    <ellipse
       style="fill:#78bcdb;fill-opacity:1;stroke:#78bcdb;stroke-width:0.465;stroke-miterlimit:4;stroke-dasharray:none;stroke-opacity:1"
       id="ellipse4264"
       cx="29.464151"
       cy="62.46455"
       rx="3.0836885"
       ry="2.7023017" />
    <g
       id="g5259">
      <ellipse
         style="fill:#78bcdb;fill-opacity:1;stroke:#78bcdb;stroke-width:0.465;stroke-miterlimit:4;stroke-dasharray:none;stroke-opacity:1"
         id="ellipse4268"
         cx="18.037786"
         cy="52.289406"
         rx="3.0836885"
         ry="2.7023017" />
      <ellipse
         style="fill:#78bcdb;fill-opacity:1;stroke:#78bcdb;stroke-width:0.465;stroke-miterlimit:4;stroke-dasharray:none;stroke-opacity:1"
         id="ellipse4272"
         cx="143.72781"
         cy="52.289406"
         rx="3.0836885"
         ry="2.7023017" />
      <ellipse
         style="fill:#78bcdb;fill-opacity:1;stroke:#78bcdb;stroke-width:0.465;stroke-miterlimit:4;stroke-dasharray:none;stroke-opacity:1"
         id="ellipse4274"
         cx="132.30145"
         cy="52.289406"
         rx="3.0836885"
         ry="2.7023017" />
      <ellipse
         style="fill:#78bcdb;fill-opacity:1;stroke:#78bcdb;stroke-width:0.465;stroke-miterlimit:4;stroke-dasharray:none;stroke-opacity:1"
         id="ellipse4276"
         cx="120.87508"
         cy="52.289406"
         rx="3.0836885"
         ry="2.7023017" />
      <ellipse
         style="fill:#00c200;fill-opacity:1;stroke:#00c200;stroke-width:0.465;stroke-miterlimit:4;stroke-dasharray:none;stroke-opacity:1"
         id="ellipse4270"
         cx="63.743252"
         cy="52.289406"
         rx="3.0836885"
         ry="2.7023017" />
      <ellipse
         style="fill:#00c200;fill-opacity:1;stroke:#00c200;stroke-width:0.465;stroke-miterlimit:4;stroke-dasharray:none;stroke-opacity:1"
         id="ellipse4278"
         cx="109.44872"
         cy="52.289406"
         rx="3.0836885"
         ry="2.7023017" />
      <ellipse
         style="fill:#00c200;fill-opacity:1;stroke:#00c200;stroke-width:0.465;stroke-miterlimit:4;stroke-dasharray:none;stroke-opacity:1"
         id="ellipse4280"
         cx="98.022346"
         cy="52.289406"
         rx="3.0836885"
         ry="2.7023017" />
      <ellipse
         style="fill:#00c200;fill-opacity:1;stroke:#00c200;stroke-width:0.465;stroke-miterlimit:4;stroke-dasharray:none;stroke-opacity:1"
         id="ellipse4282"
         cx="86.595985"
         cy="52.289406"
         rx="3.0836885"
         ry="2.7023017" />
      <ellipse
         style="fill:#00c200;fill-opacity:1;stroke:#00c200;stroke-width:0.465;stroke-miterlimit:4;stroke-dasharray:none;stroke-opacity:1"
         id="ellipse4284"
         cx="75.169609"
         cy="52.289406"
         rx="3.0836885"
         ry="2.7023017" />
      <ellipse
         style="fill:#00c200;fill-opacity:1;stroke:#00c200;stroke-width:0.465;stroke-miterlimit:4;stroke-dasharray:none;stroke-opacity:1"
         id="ellipse4286"
         cx="52.316883"
         cy="52.289406"
         rx="3.0836885"
         ry="2.7023017" />
      <ellipse
         style="fill:#78bcdb;fill-opacity:1;stroke:#78bcdb;stroke-width:0.465;stroke-miterlimit:4;stroke-dasharray:none;stroke-opacity:1"
         id="ellipse4288"
         cx="40.890518"
         cy="52.289406"
         rx="3.0836885"
         ry="2.7023017" />
      <ellipse
         style="fill:#78bcdb;fill-opacity:1;stroke:#78bcdb;stroke-width:0.465;stroke-miterlimit:4;stroke-dasharray:none;stroke-opacity:1"
         id="ellipse4290"
         cx="29.464151"
         cy="52.289406"
         rx="3.0836885"
         ry="2.7023017" />
    </g>
    <g
       id="g5219">
      <ellipse
         style="fill:#78bcdb;fill-opacity:1;stroke:#78bcdb;stroke-width:0.465;stroke-miterlimit:4;stroke-dasharray:none;stroke-opacity:1"
         id="ellipse4294"
         cx="18.037786"
         cy="42.114258"
         rx="3.0836885"
         ry="2.7023017" />
      <ellipse
         style="fill:#78bcdb;fill-opacity:1;stroke:#78bcdb;stroke-width:0.465;stroke-miterlimit:4;stroke-dasharray:none;stroke-opacity:1"
         id="ellipse4296"
         cx="63.743252"
         cy="42.114258"
         rx="3.0836885"
         ry="2.7023017" />
      <ellipse
         style="fill:#78bcdb;fill-opacity:1;stroke:#78bcdb;stroke-width:0.465;stroke-miterlimit:4;stroke-dasharray:none;stroke-opacity:1"
         id="ellipse4298"
         cx="143.72781"
         cy="42.114258"
         rx="3.0836885"
         ry="2.7023017" />
      <ellipse
         style="fill:#78bcdb;fill-opacity:1;stroke:#78bcdb;stroke-width:0.465;stroke-miterlimit:4;stroke-dasharray:none;stroke-opacity:1"
         id="ellipse4300"
         cx="132.30145"
         cy="42.114258"
         rx="3.0836885"
         ry="2.7023017" />
      <ellipse
         style="fill:#78bcdb;fill-opacity:1;stroke:#78bcdb;stroke-width:0.465;stroke-miterlimit:4;stroke-dasharray:none;stroke-opacity:1"
         id="ellipse4302"
         cx="120.87508"
         cy="42.114258"
         rx="3.0836885"
         ry="2.7023017" />
      <ellipse
         style="fill:#78bcdb;fill-opacity:1;stroke:#78bcdb;stroke-width:0.465;stroke-miterlimit:4;stroke-dasharray:none;stroke-opacity:1"
         id="ellipse4304"
         cx="109.44872"
         cy="42.114258"
         rx="3.0836885"
         ry="2.7023017" />
      <ellipse
         style="fill:#78bcdb;fill-opacity:1;stroke:#78bcdb;stroke-width:0.465;stroke-miterlimit:4;stroke-dasharray:none;stroke-opacity:1"
         id="ellipse4306"
         cx="98.022346"
         cy="42.114258"
         rx="3.0836885"
         ry="2.7023017" />
      <ellipse
         style="fill:#00c200;fill-opacity:1;stroke:#00c200;stroke-width:0.465;stroke-miterlimit:4;stroke-dasharray:none;stroke-opacity:1"
         id="ellipse4308"
         cx="86.595985"
         cy="42.114258"
         rx="3.0836885"
         ry="2.7023017" />
      <ellipse
         style="fill:#00c200;fill-opacity:1;stroke:#00c200;stroke-width:0.465;stroke-miterlimit:4;stroke-dasharray:none;stroke-opacity:1"
         id="ellipse4310"
         cx="75.169609"
         cy="42.114258"
         rx="3.0836885"
         ry="2.7023017" />
      <ellipse
         style="fill:#78bcdb;fill-opacity:1;stroke:#78bcdb;stroke-width:0.465;stroke-miterlimit:4;stroke-dasharray:none;stroke-opacity:1"
         id="ellipse4312"
         cx="52.316883"
         cy="42.114258"
         rx="3.0836885"
         ry="2.7023017" />
      <ellipse
         style="fill:#78bcdb;fill-opacity:1;stroke:#78bcdb;stroke-width:0.465;stroke-miterlimit:4;stroke-dasharray:none;stroke-opacity:1"
         id="ellipse4314"
         cx="40.890518"
         cy="42.114258"
         rx="3.0836885"
         ry="2.7023017" />
      <ellipse
         style="fill:#78bcdb;fill-opacity:1;stroke:#78bcdb;stroke-width:0.465;stroke-miterlimit:4;stroke-dasharray:none;stroke-opacity:1"
         id="ellipse4316"
         cx="29.464151"
         cy="42.114258"
         rx="3.0836885"
         ry="2.7023017" />
    </g>
    <g
       id="g4344"
       transform="translate(-3.7181147,9.8180484)">
      <ellipse
         style="fill:#78bcdb;fill-opacity:1;stroke:#78bcdb;stroke-width:0.465;stroke-miterlimit:4;stroke-dasharray:none;stroke-opacity:1"
         id="ellipse4320"
         cx="21.755901"
         cy="22.121061"
         rx="3.0836885"
         ry="2.7023017" />
      <ellipse
         style="fill:#78bcdb;fill-opacity:1;stroke:#78bcdb;stroke-width:0.465;stroke-miterlimit:4;stroke-dasharray:none;stroke-opacity:1"
         id="ellipse4322"
         cx="67.461365"
         cy="22.121061"
         rx="3.0836885"
         ry="2.7023017" />
      <ellipse
         style="fill:#78bcdb;fill-opacity:1;stroke:#78bcdb;stroke-width:0.465;stroke-miterlimit:4;stroke-dasharray:none;stroke-opacity:1"
         id="ellipse4324"
         cx="147.44592"
         cy="22.121061"
         rx="3.0836885"
         ry="2.7023017" />
      <ellipse
         style="fill:#78bcdb;fill-opacity:1;stroke:#78bcdb;stroke-width:0.465;stroke-miterlimit:4;stroke-dasharray:none;stroke-opacity:1"
         id="ellipse4326"
         cx="136.01956"
         cy="22.121061"
         rx="3.0836885"
         ry="2.7023017" />
      <ellipse
         style="fill:#78bcdb;fill-opacity:1;stroke:#78bcdb;stroke-width:0.465;stroke-miterlimit:4;stroke-dasharray:none;stroke-opacity:1"
         id="ellipse4328"
         cx="124.5932"
         cy="22.121061"
         rx="3.0836885"
         ry="2.7023017" />
      <ellipse
         style="fill:#78bcdb;fill-opacity:1;stroke:#78bcdb;stroke-width:0.465;stroke-miterlimit:4;stroke-dasharray:none;stroke-opacity:1"
         id="ellipse4330"
         cx="113.16683"
         cy="22.121061"
         rx="3.0836885"
         ry="2.7023017" />
      <ellipse
         style="fill:#78bcdb;fill-opacity:1;stroke:#78bcdb;stroke-width:0.465;stroke-miterlimit:4;stroke-dasharray:none;stroke-opacity:1"
         id="ellipse4332"
         cx="101.74046"
         cy="22.121061"
         rx="3.0836885"
         ry="2.7023017" />
      <ellipse
         style="fill:#78bcdb;fill-opacity:1;stroke:#78bcdb;stroke-width:0.465;stroke-miterlimit:4;stroke-dasharray:none;stroke-opacity:1"
         id="ellipse4334"
         cx="90.314102"
         cy="22.121061"
         rx="3.0836885"
         ry="2.7023017" />
      <ellipse
         style="fill:#78bcdb;fill-opacity:1;stroke:#78bcdb;stroke-width:0.465;stroke-miterlimit:4;stroke-dasharray:none;stroke-opacity:1"
         id="ellipse4336"
         cx="78.887726"
         cy="22.121061"
         rx="3.0836885"
         ry="2.7023017" />
      <ellipse
         style="fill:#78bcdb;fill-opacity:1;stroke:#78bcdb;stroke-width:0.465;stroke-miterlimit:4;stroke-dasharray:none;stroke-opacity:1"
         id="ellipse4338"
         cx="56.034996"
         cy="22.121061"
         rx="3.0836885"
         ry="2.7023017" />
      <ellipse
         style="fill:#78bcdb;fill-opacity:1;stroke:#78bcdb;stroke-width:0.465;stroke-miterlimit:4;stroke-dasharray:none;stroke-opacity:1"
         id="ellipse4340"
         cx="44.608631"
         cy="22.121061"
         rx="3.0836885"
         ry="2.7023017" />
      <ellipse
         style="fill:#78bcdb;fill-opacity:1;stroke:#78bcdb;stroke-width:0.465;stroke-miterlimit:4;stroke-dasharray:none;stroke-opacity:1"
         id="ellipse4342"
         cx="33.182266"
         cy="22.121061"
         rx="3.0836885"
         ry="2.7023017" />
    </g>
    <g
       id="g4370"
       transform="translate(-3.7181147,111.56951)">
      <ellipse
         style="fill:#78bcdb;fill-opacity:1;stroke:#78bcdb;stroke-width:0.465;stroke-miterlimit:4;stroke-dasharray:none;stroke-opacity:1"
         id="ellipse4346"
         cx="21.755901"
         cy="22.121061"
         rx="3.0836885"
         ry="2.7023017" />
      <ellipse
         style="fill:#78bcdb;fill-opacity:1;stroke:#78bcdb;stroke-width:0.465;stroke-miterlimit:4;stroke-dasharray:none;stroke-opacity:1"
         id="ellipse4348"
         cx="67.461365"
         cy="22.121061"
         rx="3.0836885"
         ry="2.7023017" />
      <ellipse
         style="fill:#78bcdb;fill-opacity:1;stroke:#78bcdb;stroke-width:0.465;stroke-miterlimit:4;stroke-dasharray:none;stroke-opacity:1"
         id="ellipse4350"
         cx="147.44592"
         cy="22.121061"
         rx="3.0836885"
         ry="2.7023017" />
      <ellipse
         style="fill:#78bcdb;fill-opacity:1;stroke:#78bcdb;stroke-width:0.465;stroke-miterlimit:4;stroke-dasharray:none;stroke-opacity:1"
         id="ellipse4352"
         cx="136.01956"
         cy="22.121061"
         rx="3.0836885"
         ry="2.7023017" />
      <ellipse
         style="fill:#78bcdb;fill-opacity:1;stroke:#78bcdb;stroke-width:0.465;stroke-miterlimit:4;stroke-dasharray:none;stroke-opacity:1"
         id="ellipse4354"
         cx="124.5932"
         cy="22.121061"
         rx="3.0836885"
         ry="2.7023017" />
      <ellipse
         style="fill:#78bcdb;fill-opacity:1;stroke:#78bcdb;stroke-width:0.465;stroke-miterlimit:4;stroke-dasharray:none;stroke-opacity:1"
         id="ellipse4356"
         cx="113.16683"
         cy="22.121061"
         rx="3.0836885"
         ry="2.7023017" />
      <ellipse
         style="fill:#78bcdb;fill-opacity:1;stroke:#78bcdb;stroke-width:0.465;stroke-miterlimit:4;stroke-dasharray:none;stroke-opacity:1"
         id="ellipse4358"
         cx="101.74046"
         cy="22.121061"
         rx="3.0836885"
         ry="2.7023017" />
      <ellipse
         style="fill:#78bcdb;fill-opacity:1;stroke:#78bcdb;stroke-width:0.465;stroke-miterlimit:4;stroke-dasharray:none;stroke-opacity:1"
         id="ellipse4360"
         cx="90.314102"
         cy="22.121061"
         rx="3.0836885"
         ry="2.7023017" />
      <ellipse
         style="fill:#78bcdb;fill-opacity:1;stroke:#78bcdb;stroke-width:0.465;stroke-miterlimit:4;stroke-dasharray:none;stroke-opacity:1"
         id="ellipse4362"
         cx="78.887726"
         cy="22.121061"
         rx="3.0836885"
         ry="2.7023017" />
      <ellipse
         style="fill:#78bcdb;fill-opacity:1;stroke:#78bcdb;stroke-width:0.465;stroke-miterlimit:4;stroke-dasharray:none;stroke-opacity:1"
         id="ellipse4364"
         cx="56.034996"
         cy="22.121061"
         rx="3.0836885"
         ry="2.7023017" />
      <ellipse
         style="fill:#78bcdb;fill-opacity:1;stroke:#78bcdb;stroke-width:0.465;stroke-miterlimit:4;stroke-dasharray:none;stroke-opacity:1"
         id="ellipse4366"
         cx="44.608631"
         cy="22.121061"
         rx="3.0836885"
         ry="2.7023017" />
      <ellipse
         style="fill:#78bcdb;fill-opacity:1;stroke:#78bcdb;stroke-width:0.465;stroke-miterlimit:4;stroke-dasharray:none;stroke-opacity:1"
         id="ellipse4368"
         cx="33.182266"
         cy="22.121061"
         rx="3.0836885"
         ry="2.7023017" />
    </g>
    <g
       id="g4396"
       transform="translate(-3.7181147,101.39436)">
      <ellipse
         style="fill:#78bcdb;fill-opacity:1;stroke:#78bcdb;stroke-width:0.465;stroke-miterlimit:4;stroke-dasharray:none;stroke-opacity:1"
         id="ellipse4372"
         cx="21.755901"
         cy="22.121061"
         rx="3.0836885"
         ry="2.7023017" />
      <ellipse
         style="fill:#78bcdb;fill-opacity:1;stroke:#78bcdb;stroke-width:0.465;stroke-miterlimit:4;stroke-dasharray:none;stroke-opacity:1"
         id="ellipse4374"
         cx="67.461365"
         cy="22.121061"
         rx="3.0836885"
         ry="2.7023017" />
      <ellipse
         style="fill:#78bcdb;fill-opacity:1;stroke:#78bcdb;stroke-width:0.465;stroke-miterlimit:4;stroke-dasharray:none;stroke-opacity:1"
         id="ellipse4376"
         cx="147.44592"
         cy="22.121061"
         rx="3.0836885"
         ry="2.7023017" />
      <ellipse
         style="fill:#78bcdb;fill-opacity:1;stroke:#78bcdb;stroke-width:0.465;stroke-miterlimit:4;stroke-dasharray:none;stroke-opacity:1"
         id="ellipse4378"
         cx="136.01956"
         cy="22.121061"
         rx="3.0836885"
         ry="2.7023017" />
      <ellipse
         style="fill:#78bcdb;fill-opacity:1;stroke:#78bcdb;stroke-width:0.465;stroke-miterlimit:4;stroke-dasharray:none;stroke-opacity:1"
         id="ellipse4380"
         cx="124.5932"
         cy="22.121061"
         rx="3.0836885"
         ry="2.7023017" />
      <ellipse
         style="fill:#78bcdb;fill-opacity:1;stroke:#78bcdb;stroke-width:0.465;stroke-miterlimit:4;stroke-dasharray:none;stroke-opacity:1"
         id="ellipse4382"
         cx="113.16683"
         cy="22.121061"
         rx="3.0836885"
         ry="2.7023017" />
      <ellipse
         style="fill:#78bcdb;fill-opacity:1;stroke:#78bcdb;stroke-width:0.465;stroke-miterlimit:4;stroke-dasharray:none;stroke-opacity:1"
         id="ellipse4384"
         cx="101.74046"
         cy="22.121061"
         rx="3.0836885"
         ry="2.7023017" />
      <ellipse
         style="fill:#78bcdb;fill-opacity:1;stroke:#78bcdb;stroke-width:0.465;stroke-miterlimit:4;stroke-dasharray:none;stroke-opacity:1"
         id="ellipse4386"
         cx="90.314102"
         cy="22.121061"
         rx="3.0836885"
         ry="2.7023017" />
      <ellipse
         style="fill:#78bcdb;fill-opacity:1;stroke:#78bcdb;stroke-width:0.465;stroke-miterlimit:4;stroke-dasharray:none;stroke-opacity:1"
         id="ellipse4388"
         cx="78.887726"
         cy="22.121061"
         rx="3.0836885"
         ry="2.7023017" />
      <ellipse
         style="fill:#78bcdb;fill-opacity:1;stroke:#78bcdb;stroke-width:0.465;stroke-miterlimit:4;stroke-dasharray:none;stroke-opacity:1"
         id="ellipse4390"
         cx="56.034996"
         cy="22.121061"
         rx="3.0836885"
         ry="2.7023017" />
      <ellipse
         style="fill:#78bcdb;fill-opacity:1;stroke:#78bcdb;stroke-width:0.465;stroke-miterlimit:4;stroke-dasharray:none;stroke-opacity:1"
         id="ellipse4392"
         cx="44.608631"
         cy="22.121061"
         rx="3.0836885"
         ry="2.7023017" />
      <ellipse
         style="fill:#78bcdb;fill-opacity:1;stroke:#78bcdb;stroke-width:0.465;stroke-miterlimit:4;stroke-dasharray:none;stroke-opacity:1"
         id="ellipse4394"
         cx="33.182266"
         cy="22.121061"
         rx="3.0836885"
         ry="2.7023017" />
    </g>
    <ellipse
       style="fill:#78bcdb;fill-opacity:1;stroke:#78bcdb;stroke-width:0.465;stroke-miterlimit:4;stroke-dasharray:none;stroke-opacity:1"
       id="ellipse4398"
       cx="18.037786"
       cy="113.34028"
       rx="3.0836885"
       ry="2.7023017" />
    <ellipse
       style="fill:#78bcdb;fill-opacity:1;stroke:#78bcdb;stroke-width:0.465;stroke-miterlimit:4;stroke-dasharray:none;stroke-opacity:1"
       id="ellipse4400"
       cx="63.743252"
       cy="113.34028"
       rx="3.0836885"
       ry="2.7023017" />
    <ellipse
       style="fill:#78bcdb;fill-opacity:1;stroke:#78bcdb;stroke-width:0.465;stroke-miterlimit:4;stroke-dasharray:none;stroke-opacity:1"
       id="ellipse4402"
       cx="143.72781"
       cy="113.34028"
       rx="3.0836885"
       ry="2.7023017" />
    <ellipse
       style="fill:#78bcdb;fill-opacity:1;stroke:#78bcdb;stroke-width:0.465;stroke-miterlimit:4;stroke-dasharray:none;stroke-opacity:1"
       id="ellipse4404"
       cx="132.30145"
       cy="113.34028"
       rx="3.0836885"
       ry="2.7023017" />
    <ellipse
       style="fill:#78bcdb;fill-opacity:1;stroke:#78bcdb;stroke-width:0.465;stroke-miterlimit:4;stroke-dasharray:none;stroke-opacity:1"
       id="ellipse4406"
       cx="120.87508"
       cy="113.34028"
       rx="3.0836885"
       ry="2.7023017" />
    <ellipse
       style="fill:#78bcdb;fill-opacity:1;stroke:#78bcdb;stroke-width:0.465;stroke-miterlimit:4;stroke-dasharray:none;stroke-opacity:1"
       id="ellipse4408"
       cx="109.44872"
       cy="113.34028"
       rx="3.0836885"
       ry="2.7023017" />
    <ellipse
       style="fill:#78bcdb;fill-opacity:1;stroke:#78bcdb;stroke-width:0.465;stroke-miterlimit:4;stroke-dasharray:none;stroke-opacity:1"
       id="ellipse4410"
       cx="98.022346"
       cy="113.34028"
       rx="3.0836885"
       ry="2.7023017" />
    <ellipse
       style="fill:#78bcdb;fill-opacity:1;stroke:#78bcdb;stroke-width:0.465;stroke-miterlimit:4;stroke-dasharray:none;stroke-opacity:1"
       id="ellipse4416"
       cx="52.316883"
       cy="113.34028"
       rx="3.0836885"
       ry="2.7023017" />
    <ellipse
       style="fill:#78bcdb;fill-opacity:1;stroke:#78bcdb;stroke-width:0.465;stroke-miterlimit:4;stroke-dasharray:none;stroke-opacity:1"
       id="ellipse4418"
       cx="40.890518"
       cy="113.34028"
       rx="3.0836885"
       ry="2.7023017" />
    <ellipse
       style="fill:#78bcdb;fill-opacity:1;stroke:#78bcdb;stroke-width:0.465;stroke-miterlimit:4;stroke-dasharray:none;stroke-opacity:1"
       id="ellipse4420"
       cx="29.464151"
       cy="113.34028"
       rx="3.0836885"
       ry="2.7023017" />
    <ellipse
       style="fill:#78bcdb;fill-opacity:1;stroke:#78bcdb;stroke-width:0.465;stroke-miterlimit:4;stroke-dasharray:none;stroke-opacity:1"
       id="ellipse4424"
       cx="18.037786"
       cy="103.16513"
       rx="3.0836885"
       ry="2.7023017" />
    <ellipse
       style="fill:#78bcdb;fill-opacity:1;stroke:#78bcdb;stroke-width:0.465;stroke-miterlimit:4;stroke-dasharray:none;stroke-opacity:1"
       id="ellipse4428"
       cx="143.72781"
       cy="103.16513"
       rx="3.0836885"
       ry="2.7023017" />
    <ellipse
       style="fill:#78bcdb;fill-opacity:1;stroke:#78bcdb;stroke-width:0.465;stroke-miterlimit:4;stroke-dasharray:none;stroke-opacity:1"
       id="ellipse4430"
       cx="132.30145"
       cy="103.16513"
       rx="3.0836885"
       ry="2.7023017" />
    <ellipse
       style="fill:#78bcdb;fill-opacity:1;stroke:#78bcdb;stroke-width:0.465;stroke-miterlimit:4;stroke-dasharray:none;stroke-opacity:1"
       id="ellipse4432"
       cx="120.87508"
       cy="103.16513"
       rx="3.0836885"
       ry="2.7023017" />
    <g
       id="g5373">
      <ellipse
         style="fill:#00c200;fill-opacity:1;stroke:#00c200;stroke-width:0.465;stroke-miterlimit:4;stroke-dasharray:none;stroke-opacity:1"
         id="ellipse4166"
         cx="63.743252"
         cy="92.98999"
         rx="3.0836885"
         ry="2.7023017" />
      <ellipse
         style="fill:#00c200;fill-opacity:1;stroke:#00c200;stroke-width:0.465;stroke-miterlimit:4;stroke-dasharray:none;stroke-opacity:1"
         id="ellipse4172"
         cx="120.87508"
         cy="92.98999"
         rx="3.0836885"
         ry="2.7023017" />
      <ellipse
         style="fill:#00c200;fill-opacity:1;stroke:#00c200;stroke-width:0.465;stroke-miterlimit:4;stroke-dasharray:none;stroke-opacity:1"
         id="ellipse4174"
         cx="109.44872"
         cy="92.98999"
         rx="3.0836885"
         ry="2.7023017" />
      <ellipse
         style="fill:#00c200;fill-opacity:1;stroke:#00c200;stroke-width:0.465;stroke-miterlimit:4;stroke-dasharray:none;stroke-opacity:1"
         id="ellipse4176"
         cx="98.022346"
         cy="92.98999"
         rx="3.0836885"
         ry="2.7023017" />
      <ellipse
         style="fill:#00c200;fill-opacity:1;stroke:#00c200;stroke-width:0.465;stroke-miterlimit:4;stroke-dasharray:none;stroke-opacity:1"
         id="ellipse4178"
         cx="86.595985"
         cy="92.98999"
         rx="3.0836885"
         ry="2.7023017" />
      <ellipse
         style="fill:#00c200;fill-opacity:1;stroke:#00c200;stroke-width:0.465;stroke-miterlimit:4;stroke-dasharray:none;stroke-opacity:1"
         id="ellipse4180"
         cx="75.169609"
         cy="92.98999"
         rx="3.0836885"
         ry="2.7023017" />
      <ellipse
         style="fill:#00c200;fill-opacity:1;stroke:#00c200;stroke-width:0.465;stroke-miterlimit:4;stroke-dasharray:none;stroke-opacity:1"
         id="ellipse4182"
         cx="52.316883"
         cy="92.98999"
         rx="3.0836885"
         ry="2.7023017" />
      <ellipse
         style="fill:#00c200;fill-opacity:1;stroke:#00c200;stroke-width:0.465;stroke-miterlimit:4;stroke-dasharray:none;stroke-opacity:1"
         id="ellipse4184"
         cx="40.890518"
         cy="92.98999"
         rx="3.0836885"
         ry="2.7023017" />
      <ellipse
         style="fill:#00c200;fill-opacity:1;stroke:#00c200;stroke-width:0.465;stroke-miterlimit:4;stroke-dasharray:none;stroke-opacity:1"
         id="ellipse4192"
         cx="63.743252"
         cy="82.814842"
         rx="3.0836885"
         ry="2.7023017" />
      <ellipse
         style="fill:#00c200;fill-opacity:1;stroke:#00c200;stroke-width:0.465;stroke-miterlimit:4;stroke-dasharray:none;stroke-opacity:1"
         id="ellipse4198"
         cx="120.87508"
         cy="82.814842"
         rx="3.0836885"
         ry="2.7023017" />
      <ellipse
         style="fill:#00c200;fill-opacity:1;stroke:#00c200;stroke-width:0.465;stroke-miterlimit:4;stroke-dasharray:none;stroke-opacity:1"
         id="ellipse4200"
         cx="109.44872"
         cy="82.814842"
         rx="3.0836885"
         ry="2.7023017" />
      <ellipse
         style="fill:#00c200;fill-opacity:1;stroke:#00c200;stroke-width:0.465;stroke-miterlimit:4;stroke-dasharray:none;stroke-opacity:1"
         id="ellipse4202"
         cx="98.022346"
         cy="82.814842"
         rx="3.0836885"
         ry="2.7023017" />
      <ellipse
         style="fill:#00c200;fill-opacity:1;stroke:#00c200;stroke-width:0.465;stroke-miterlimit:4;stroke-dasharray:none;stroke-opacity:1"
         id="ellipse4204"
         cx="86.595985"
         cy="82.814842"
         rx="3.0836885"
         ry="2.7023017" />
      <ellipse
         style="fill:#00c200;fill-opacity:1;stroke:#00c200;stroke-width:0.465;stroke-miterlimit:4;stroke-dasharray:none;stroke-opacity:1"
         id="ellipse4206"
         cx="75.169609"
         cy="82.814842"
         rx="3.0836885"
         ry="2.7023017" />
      <ellipse
         style="fill:#00c200;fill-opacity:1;stroke:#00c200;stroke-width:0.465;stroke-miterlimit:4;stroke-dasharray:none;stroke-opacity:1"
         id="ellipse4208"
         cx="52.316883"
         cy="82.814842"
         rx="3.0836885"
         ry="2.7023017" />
      <ellipse
         style="fill:#00c200;fill-opacity:1;stroke:#00c200;stroke-width:0.465;stroke-miterlimit:4;stroke-dasharray:none;stroke-opacity:1"
         id="ellipse4210"
         cx="40.890518"
         cy="82.814842"
         rx="3.0836885"
         ry="2.7023017" />
      <ellipse
         style="fill:#00c200;fill-opacity:1;stroke:#00c200;stroke-width:0.465;stroke-miterlimit:4;stroke-dasharray:none;stroke-opacity:1"
         id="ellipse4218"
         cx="63.743252"
         cy="72.639694"
         rx="3.0836885"
         ry="2.7023017" />
      <ellipse
         style="fill:#00c200;fill-opacity:1;stroke:#00c200;stroke-width:0.465;stroke-miterlimit:4;stroke-dasharray:none;stroke-opacity:1"
         id="ellipse4224"
         cx="120.87508"
         cy="72.639694"
         rx="3.0836885"
         ry="2.7023017" />
      <ellipse
         style="fill:#00c200;fill-opacity:1;stroke:#00c200;stroke-width:0.465;stroke-miterlimit:4;stroke-dasharray:none;stroke-opacity:1"
         id="ellipse4226"
         cx="109.44872"
         cy="72.639694"
         rx="3.0836885"
         ry="2.7023017" />
      <ellipse
         style="fill:#00c200;fill-opacity:1;stroke:#00c200;stroke-width:0.465;stroke-miterlimit:4;stroke-dasharray:none;stroke-opacity:1"
         id="ellipse4228"
         cx="98.022346"
         cy="72.639694"
         rx="3.0836885"
         ry="2.7023017" />
      <ellipse
         style="fill:#00c200;fill-opacity:1;stroke:#00c200;stroke-width:0.465;stroke-miterlimit:4;stroke-dasharray:none;stroke-opacity:1"
         id="ellipse4230"
         cx="86.595985"
         cy="72.639694"
         rx="3.0836885"
         ry="2.7023017" />
      <ellipse
         style="fill:#00c200;fill-opacity:1;stroke:#00c200;stroke-width:0.465;stroke-miterlimit:4;stroke-dasharray:none;stroke-opacity:1"
         id="ellipse4232"
         cx="75.169609"
         cy="72.639694"
         rx="3.0836885"
         ry="2.7023017" />
      <ellipse
         style="fill:#00c200;fill-opacity:1;stroke:#00c200;stroke-width:0.465;stroke-miterlimit:4;stroke-dasharray:none;stroke-opacity:1"
         id="ellipse4234"
         cx="52.316883"
         cy="72.639694"
         rx="3.0836885"
         ry="2.7023017" />
      <ellipse
         style="fill:#00c200;fill-opacity:1;stroke:#00c200;stroke-width:0.465;stroke-miterlimit:4;stroke-dasharray:none;stroke-opacity:1"
         id="ellipse4236"
         cx="40.890518"
         cy="72.639694"
         rx="3.0836885"
         ry="2.7023017" />
      <ellipse
         style="fill:#00c200;fill-opacity:1;stroke:#00c200;stroke-width:0.465;stroke-miterlimit:4;stroke-dasharray:none;stroke-opacity:1"
         id="ellipse4244"
         cx="63.743252"
         cy="62.46455"
         rx="3.0836885"
         ry="2.7023017" />
      <ellipse
         style="fill:#00c200;fill-opacity:1;stroke:#00c200;stroke-width:0.465;stroke-miterlimit:4;stroke-dasharray:none;stroke-opacity:1"
         id="ellipse4250"
         cx="120.87508"
         cy="62.46455"
         rx="3.0836885"
         ry="2.7023017" />
      <ellipse
         style="fill:#00c200;fill-opacity:1;stroke:#00c200;stroke-width:0.465;stroke-miterlimit:4;stroke-dasharray:none;stroke-opacity:1"
         id="ellipse4252"
         cx="109.44872"
         cy="62.46455"
         rx="3.0836885"
         ry="2.7023017" />
      <ellipse
         style="fill:#00c200;fill-opacity:1;stroke:#00c200;stroke-width:0.465;stroke-miterlimit:4;stroke-dasharray:none;stroke-opacity:1"
         id="ellipse4254"
         cx="98.022346"
         cy="62.46455"
         rx="3.0836885"
         ry="2.7023017" />
      <ellipse
         style="fill:#00c200;fill-opacity:1;stroke:#00c200;stroke-width:0.465;stroke-miterlimit:4;stroke-dasharray:none;stroke-opacity:1"
         id="ellipse4256"
         cx="86.595985"
         cy="62.46455"
         rx="3.0836885"
         ry="2.7023017" />
      <ellipse
         style="fill:#00c200;fill-opacity:1;stroke:#00c200;stroke-width:0.465;stroke-miterlimit:4;stroke-dasharray:none;stroke-opacity:1"
         id="ellipse4258"
         cx="75.169609"
         cy="62.46455"
         rx="3.0836885"
         ry="2.7023017" />
      <ellipse
         style="fill:#00c200;fill-opacity:1;stroke:#00c200;stroke-width:0.465;stroke-miterlimit:4;stroke-dasharray:none;stroke-opacity:1"
         id="ellipse4260"
         cx="52.316883"
         cy="62.46455"
         rx="3.0836885"
         ry="2.7023017" />
      <ellipse
         style="fill:#00c200;fill-opacity:1;stroke:#00c200;stroke-width:0.465;stroke-miterlimit:4;stroke-dasharray:none;stroke-opacity:1"
         id="ellipse4262"
         cx="40.890518"
         cy="62.46455"
         rx="3.0836885"
         ry="2.7023017" />
      <ellipse
         style="fill:#00c200;fill-opacity:1;stroke:#00c200;stroke-width:0.465;stroke-miterlimit:4;stroke-dasharray:none;stroke-opacity:1"
         id="ellipse4412"
         cx="86.595985"
         cy="113.34028"
         rx="3.0836885"
         ry="2.7023017" />
      <ellipse
         style="fill:#00c200;fill-opacity:1;stroke:#00c200;stroke-width:0.465;stroke-miterlimit:4;stroke-dasharray:none;stroke-opacity:1"
         id="ellipse4414"
         cx="75.169609"
         cy="113.34028"
         rx="3.0836885"
         ry="2.7023017" />
      <ellipse
         style="fill:#00c200;fill-opacity:1;stroke:#00c200;stroke-width:0.465;stroke-miterlimit:4;stroke-dasharray:none;stroke-opacity:1"
         id="ellipse4426"
         cx="63.743252"
         cy="103.16513"
         rx="3.0836885"
         ry="2.7023017" />
      <ellipse
         style="fill:#00c200;fill-opacity:1;stroke:#00c200;stroke-width:0.465;stroke-miterlimit:4;stroke-dasharray:none;stroke-opacity:1"
         id="ellipse4434"
         cx="109.44872"
         cy="103.16513"
         rx="3.0836885"
         ry="2.7023017" />
      <ellipse
         style="fill:#00c200;fill-opacity:1;stroke:#00c200;stroke-width:0.465;stroke-miterlimit:4;stroke-dasharray:none;stroke-opacity:1"
         id="ellipse4436"
         cx="98.022346"
         cy="103.16513"
         rx="3.0836885"
         ry="2.7023017" />
      <ellipse
         style="fill:#00c200;fill-opacity:1;stroke:#00c200;stroke-width:0.465;stroke-miterlimit:4;stroke-dasharray:none;stroke-opacity:1"
         id="ellipse4438"
         cx="86.595985"
         cy="103.16513"
         rx="3.0836885"
         ry="2.7023017" />
      <ellipse
         style="fill:#00c200;fill-opacity:1;stroke:#00c200;stroke-width:0.465;stroke-miterlimit:4;stroke-dasharray:none;stroke-opacity:1"
         id="ellipse4440"
         cx="75.169609"
         cy="103.16513"
         rx="3.0836885"
         ry="2.7023017" />
      <ellipse
         style="fill:#00c200;fill-opacity:1;stroke:#00c200;stroke-width:0.465;stroke-miterlimit:4;stroke-dasharray:none;stroke-opacity:1"
         id="ellipse4442"
         cx="52.316883"
         cy="103.16513"
         rx="3.0836885"
         ry="2.7023017" />
    </g>
    <ellipse
       style="fill:#78bcdb;fill-opacity:1;stroke:#78bcdb;stroke-width:0.465;stroke-miterlimit:4;stroke-dasharray:none;stroke-opacity:1"
       id="ellipse4444"
       cx="40.890518"
       cy="103.16513"
       rx="3.0836885"
       ry="2.7023017" />
    <ellipse
       style="fill:#78bcdb;fill-opacity:1;stroke:#78bcdb;stroke-width:0.465;stroke-miterlimit:4;stroke-dasharray:none;stroke-opacity:1"
       id="ellipse4446"
       cx="29.464151"
       cy="103.16513"
       rx="3.0836885"
       ry="2.7023017" />
    <text
       xml:space="preserve"
       id="text4486"
       style="font-style:normal;font-weight:normal;line-height:1.25;font-family:sans-serif;baseline-shift:baseline;white-space:pre;shape-inside:url(#rect4488);fill:#000000;fill-opacity:1;stroke:none;"><tspan
         x="173.3418"
         y="78.578125"><tspan> </tspan></tspan></text>
    <text
       xml:space="preserve"
       id="text4496"
       style="fill:black;fill-opacity:1;line-height:1.25;stroke:none;font-family:sans-serif;font-style:normal;font-weight:normal;font-size:10.58333333px;white-space:pre;shape-inside:url(#rect4498);" />
    <g
       transform="matrix(0.61859965,0,0,0.5488892,150.9639,67.467287)"
       ns5:version="1.3.1"
       ns5:texconverter="pdflatex"
       ns5:pdfconverter="inkscape"
       ns5:text="$K_x + G_x$"
       ns5:preamble="/home/martinez/.config/inkscape/extensions/textext/default_packages.tex"
       ns5:scale="1.0"
       ns5:alignment="middle center"
       ns5:jacobian_sqrt="0.352778"
       id="g4816">
      <defs
         id="id-30eab579-14ba-43ee-a931-0bf68459c7d6">
        <g
           id="id-c9d969ea-fb4e-4551-9909-c90e0074c89b">
          <symbol
             overflow="visible"
             id="id-f61c8e3d-20ec-4ffd-b6fb-acb27113b514">
            <path
               style="stroke:none;stroke-width:0"
               d=""
               id="id-4bcf7eef-fced-4fe1-adf2-15a429095f98" />
          </symbol>
          <symbol
             overflow="visible"
             id="id-0ca03aa5-309a-4ce5-90f0-7fb93b630289">
            <path
               style="stroke:none;stroke-width:0"
               d="M 5.078125,-4.03125 C 5.0625,-4.0625 5.03125,-4.140625 5.03125,-4.171875 c 0,0 0.171875,-0.140625 0.28125,-0.21875 l 1.75,-1.34375 C 8,-6.4375 8.390625,-6.46875 8.6875,-6.5 8.765625,-6.515625 8.859375,-6.515625 8.859375,-6.703125 8.859375,-6.734375 8.828125,-6.8125 8.75,-6.8125 c -0.21875,0 -0.46875,0.03125 -0.703125,0.03125 -0.359375,0 -0.75,-0.03125 -1.109375,-0.03125 -0.0625,0 -0.1875,0 -0.1875,0.203125 0,0.0625 0.046875,0.09375 0.125,0.109375 0.21875,0.015625 0.296875,0.0625 0.296875,0.203125 0,0.1875 -0.296875,0.421875 -0.359375,0.46875 L 2.9375,-2.84375 3.734375,-6.046875 C 3.8125,-6.40625 3.84375,-6.5 4.5625,-6.5 c 0.25,0 0.34375,0 0.34375,-0.203125 0,-0.078125 -0.078125,-0.109375 -0.140625,-0.109375 -0.28125,0 -1,0.03125 -1.28125,0.03125 C 3.203125,-6.78125 2.5,-6.8125 2.203125,-6.8125 2.140625,-6.8125 2,-6.8125 2,-6.625 2,-6.5 2.09375,-6.5 2.296875,-6.5 c 0.125,0 0.3125,0.015625 0.421875,0.015625 0.15625,0.03125 0.21875,0.046875 0.21875,0.171875 0,0.03125 0,0.0625 -0.03125,0.1875 L 1.5625,-0.78125 c -0.09375,0.390625 -0.109375,0.46875 -0.90625,0.46875 -0.171875,0 -0.28125,0 -0.28125,0.1875 C 0.375,0 0.5,0 0.53125,0 0.8125,0 1.515625,-0.03125 1.796875,-0.03125 2,-0.03125 2.21875,-0.015625 2.4375,-0.015625 2.65625,-0.015625 2.875,0 3.078125,0 3.15625,0 3.28125,0 3.28125,-0.203125 3.28125,-0.3125 3.1875,-0.3125 3,-0.3125 c -0.375,0 -0.640625,0 -0.640625,-0.171875 0,-0.078125 0.046875,-0.296875 0.078125,-0.4375 C 2.578125,-1.453125 2.71875,-1.96875 2.84375,-2.5 l 1.484375,-1.15625 1.15625,2.6875 c 0.125,0.265625 0.125,0.296875 0.125,0.34375 0,0.3125 -0.4375,0.3125 -0.53125,0.3125 -0.109375,0 -0.21875,0 -0.21875,0.203125 C 4.859375,0 4.984375,0 5,0 5.40625,0 5.828125,-0.03125 6.21875,-0.03125 6.4375,-0.03125 6.984375,0 7.203125,0 7.25,0 7.375,0 7.375,-0.203125 7.375,-0.3125 7.265625,-0.3125 7.171875,-0.3125 c -0.40625,0 -0.53125,-0.09375 -0.6875,-0.4375 z m 0,0"
               id="id-ca64ca1b-f31a-414c-8b3c-07d5fad6fb05" />
          </symbol>
          <symbol
             overflow="visible"
             id="id-aa6c8bd9-9051-44f4-a75e-dac8f9398008">
            <path
               style="stroke:none;stroke-width:0"
               d="m 7.578125,-6.921875 c 0,-0.03125 -0.015625,-0.109375 -0.109375,-0.109375 -0.03125,0 -0.046875,0.015625 -0.15625,0.125 L 6.625,-6.140625 C 6.53125,-6.28125 6.078125,-7.03125 4.96875,-7.03125 2.734375,-7.03125 0.5,-4.828125 0.5,-2.515625 c 0,1.59375 1.109375,2.734375 2.71875,2.734375 0.4375,0 0.890625,-0.09375 1.25,-0.234375 0.5,-0.203125 0.6875,-0.40625 0.859375,-0.609375 0.09375,0.25 0.359375,0.609375 0.453125,0.609375 0.046875,0 0.078125,-0.03125 0.078125,-0.03125 C 5.875,-0.0625 5.96875,-0.453125 6.015625,-0.65625 l 0.1875,-0.765625 C 6.25,-1.59375 6.296875,-1.765625 6.34375,-1.9375 c 0.109375,-0.4375 0.109375,-0.46875 0.6875,-0.46875 0.046875,0 0.15625,-0.015625 0.15625,-0.203125 0,-0.078125 -0.046875,-0.109375 -0.125,-0.109375 -0.234375,0 -0.828125,0.03125 -1.046875,0.03125 -0.3125,0 -1.09375,-0.03125 -1.40625,-0.03125 -0.078125,0 -0.203125,0 -0.203125,0.203125 0,0.109375 0.078125,0.109375 0.296875,0.109375 0.015625,0 0.296875,0 0.53125,0.015625 0.265625,0.03125 0.3125,0.0625 0.3125,0.1875 0,0.09375 -0.109375,0.53125 -0.21875,0.90625 -0.28125,1.09375 -1.5625,1.203125 -1.921875,1.203125 -0.953125,0 -2,-0.5625 -2,-2.09375 0,-0.3125 0.09375,-1.953125 1.140625,-3.25 0.546875,-0.671875 1.515625,-1.28125 2.5,-1.28125 1.015625,0 1.609375,0.765625 1.609375,1.921875 0,0.40625 -0.03125,0.40625 -0.03125,0.515625 0,0.09375 0.109375,0.09375 0.140625,0.09375 0.125,0 0.125,-0.015625 0.1875,-0.203125 z m 0,0"
               id="id-e0253806-9c56-4f95-b2cf-d8d748856dce" />
          </symbol>
          <symbol
             overflow="visible"
             id="id-90f0d93d-abd5-432b-8e3c-3356423e0d24">
            <path
               style="stroke:none;stroke-width:0"
               d=""
               id="id-34be0f17-dd29-42b5-9a78-6ccccb5eb078" />
          </symbol>
          <symbol
             overflow="visible"
             id="id-eaaaea1d-9f76-4441-917e-d67978e5a6e8">
            <path
               style="stroke:none;stroke-width:0"
               d="M 1.734375,-0.734375 C 1.671875,-0.5 1.4375,-0.125 1.078125,-0.125 c -0.015625,0 -0.234375,0 -0.375,-0.09375 0.28125,-0.09375 0.3125,-0.34375 0.3125,-0.390625 0,-0.15625 -0.125,-0.25 -0.28125,-0.25 -0.203125,0 -0.40625,0.15625 -0.40625,0.421875 0,0.34375 0.390625,0.5 0.734375,0.5 0.328125,0 0.609375,-0.1875 0.78125,-0.484375 C 2.015625,-0.0625 2.390625,0.0625 2.671875,0.0625 c 0.8125,0 1.234375,-0.859375 1.234375,-1.0625 0,-0.09375 -0.09375,-0.09375 -0.109375,-0.09375 -0.109375,0 -0.109375,0.046875 -0.140625,0.125 -0.140625,0.484375 -0.5625,0.84375 -0.953125,0.84375 -0.28125,0 -0.421875,-0.1875 -0.421875,-0.453125 0,-0.1875 0.171875,-0.8125 0.359375,-1.59375 C 2.78125,-2.703125 3.09375,-2.875 3.328125,-2.875 c 0.015625,0 0.21875,0 0.375,0.09375 -0.21875,0.0625 -0.3125,0.265625 -0.3125,0.390625 0,0.140625 0.125,0.25 0.28125,0.25 0.15625,0 0.390625,-0.125 0.390625,-0.421875 0,-0.390625 -0.453125,-0.515625 -0.71875,-0.515625 -0.359375,0 -0.640625,0.234375 -0.78125,0.5 -0.125,-0.28125 -0.453125,-0.5 -0.84375,-0.5 C 0.9375,-3.078125 0.5,-2.21875 0.5,-2 c 0,0.078125 0.09375,0.078125 0.109375,0.078125 0.09375,0 0.09375,-0.015625 0.140625,-0.109375 C 0.921875,-2.578125 1.359375,-2.875 1.703125,-2.875 1.9375,-2.875 2.125,-2.75 2.125,-2.421875 2.125,-2.28125 2.03125,-1.9375 1.96875,-1.6875 Z m 0,0"
               id="id-2f6b24be-0b15-48d5-a0e0-b8371c00b936" />
          </symbol>
          <symbol
             overflow="visible"
             id="id-1a169fc5-cb21-4dbe-b5f1-3cf5332a3f3b">
            <path
               style="stroke:none;stroke-width:0"
               d=""
               id="id-537b6203-0ea7-4862-b7b1-80934ec894f5" />
          </symbol>
          <symbol
             overflow="visible"
             id="id-bca1fa8b-141b-4d5b-98d4-2f5bf7c9ce7e">
            <path
               style="stroke:none;stroke-width:0"
               d="m 4.078125,-2.296875 h 2.78125 C 7,-2.296875 7.1875,-2.296875 7.1875,-2.5 7.1875,-2.6875 7,-2.6875 6.859375,-2.6875 h -2.78125 v -2.796875 c 0,-0.140625 0,-0.328125 -0.203125,-0.328125 -0.203125,0 -0.203125,0.1875 -0.203125,0.328125 V -2.6875 h -2.78125 c -0.140625,0 -0.328125,0 -0.328125,0.1875 0,0.203125 0.1875,0.203125 0.328125,0.203125 h 2.78125 V 0.5 c 0,0.140625 0,0.328125 0.203125,0.328125 0.203125,0 0.203125,-0.1875 0.203125,-0.328125 z m 0,0"
               id="id-085d69b7-0691-46a3-9130-90b3a351ee4c" />
          </symbol>
        </g>
      </defs>
      <g
         id="id-6cd0d0a3-4d4f-4042-8262-e76cc975d8fe"
         transform="translate(-149.087,-127.734)">
        <g
           style="fill:#000000;fill-opacity:1"
           id="id-bb63cfdf-e26b-4127-84c1-2db76fbfa63e">
          <g
             transform="translate(148.712,134.765)"
             id="g4796">
            <path
               style="stroke:none;stroke-width:0"
               d="M 5.078125,-4.03125 C 5.0625,-4.0625 5.03125,-4.140625 5.03125,-4.171875 c 0,0 0.171875,-0.140625 0.28125,-0.21875 l 1.75,-1.34375 C 8,-6.4375 8.390625,-6.46875 8.6875,-6.5 8.765625,-6.515625 8.859375,-6.515625 8.859375,-6.703125 8.859375,-6.734375 8.828125,-6.8125 8.75,-6.8125 c -0.21875,0 -0.46875,0.03125 -0.703125,0.03125 -0.359375,0 -0.75,-0.03125 -1.109375,-0.03125 -0.0625,0 -0.1875,0 -0.1875,0.203125 0,0.0625 0.046875,0.09375 0.125,0.109375 0.21875,0.015625 0.296875,0.0625 0.296875,0.203125 0,0.1875 -0.296875,0.421875 -0.359375,0.46875 L 2.9375,-2.84375 3.734375,-6.046875 C 3.8125,-6.40625 3.84375,-6.5 4.5625,-6.5 c 0.25,0 0.34375,0 0.34375,-0.203125 0,-0.078125 -0.078125,-0.109375 -0.140625,-0.109375 -0.28125,0 -1,0.03125 -1.28125,0.03125 C 3.203125,-6.78125 2.5,-6.8125 2.203125,-6.8125 2.140625,-6.8125 2,-6.8125 2,-6.625 2,-6.5 2.09375,-6.5 2.296875,-6.5 c 0.125,0 0.3125,0.015625 0.421875,0.015625 0.15625,0.03125 0.21875,0.046875 0.21875,0.171875 0,0.03125 0,0.0625 -0.03125,0.1875 L 1.5625,-0.78125 c -0.09375,0.390625 -0.109375,0.46875 -0.90625,0.46875 -0.171875,0 -0.28125,0 -0.28125,0.1875 C 0.375,0 0.5,0 0.53125,0 0.8125,0 1.515625,-0.03125 1.796875,-0.03125 2,-0.03125 2.21875,-0.015625 2.4375,-0.015625 2.65625,-0.015625 2.875,0 3.078125,0 3.15625,0 3.28125,0 3.28125,-0.203125 3.28125,-0.3125 3.1875,-0.3125 3,-0.3125 c -0.375,0 -0.640625,0 -0.640625,-0.171875 0,-0.078125 0.046875,-0.296875 0.078125,-0.4375 C 2.578125,-1.453125 2.71875,-1.96875 2.84375,-2.5 l 1.484375,-1.15625 1.15625,2.6875 c 0.125,0.265625 0.125,0.296875 0.125,0.34375 0,0.3125 -0.4375,0.3125 -0.53125,0.3125 -0.109375,0 -0.21875,0 -0.21875,0.203125 C 4.859375,0 4.984375,0 5,0 5.40625,0 5.828125,-0.03125 6.21875,-0.03125 6.4375,-0.03125 6.984375,0 7.203125,0 7.25,0 7.375,0 7.375,-0.203125 7.375,-0.3125 7.265625,-0.3125 7.171875,-0.3125 c -0.40625,0 -0.53125,-0.09375 -0.6875,-0.4375 z m 0,0"
               id="id-490dfc62-b363-43a9-8448-275d4d2b5aa6" />
          </g>
        </g>
        <g
           style="fill:#000000;fill-opacity:1"
           id="id-09e9c286-aae7-4b01-aa4f-0f4cd491b281">
          <g
             transform="translate(157.174,136.259)"
             id="g4800">
            <path
               style="stroke:none;stroke-width:0"
               d="M 1.734375,-0.734375 C 1.671875,-0.5 1.4375,-0.125 1.078125,-0.125 c -0.015625,0 -0.234375,0 -0.375,-0.09375 0.28125,-0.09375 0.3125,-0.34375 0.3125,-0.390625 0,-0.15625 -0.125,-0.25 -0.28125,-0.25 -0.203125,0 -0.40625,0.15625 -0.40625,0.421875 0,0.34375 0.390625,0.5 0.734375,0.5 0.328125,0 0.609375,-0.1875 0.78125,-0.484375 C 2.015625,-0.0625 2.390625,0.0625 2.671875,0.0625 c 0.8125,0 1.234375,-0.859375 1.234375,-1.0625 0,-0.09375 -0.09375,-0.09375 -0.109375,-0.09375 -0.109375,0 -0.109375,0.046875 -0.140625,0.125 -0.140625,0.484375 -0.5625,0.84375 -0.953125,0.84375 -0.28125,0 -0.421875,-0.1875 -0.421875,-0.453125 0,-0.1875 0.171875,-0.8125 0.359375,-1.59375 C 2.78125,-2.703125 3.09375,-2.875 3.328125,-2.875 c 0.015625,0 0.21875,0 0.375,0.09375 -0.21875,0.0625 -0.3125,0.265625 -0.3125,0.390625 0,0.140625 0.125,0.25 0.28125,0.25 0.15625,0 0.390625,-0.125 0.390625,-0.421875 0,-0.390625 -0.453125,-0.515625 -0.71875,-0.515625 -0.359375,0 -0.640625,0.234375 -0.78125,0.5 -0.125,-0.28125 -0.453125,-0.5 -0.84375,-0.5 C 0.9375,-3.078125 0.5,-2.21875 0.5,-2 c 0,0.078125 0.09375,0.078125 0.109375,0.078125 0.09375,0 0.09375,-0.015625 0.140625,-0.109375 C 0.921875,-2.578125 1.359375,-2.875 1.703125,-2.875 1.9375,-2.875 2.125,-2.75 2.125,-2.421875 2.125,-2.28125 2.03125,-1.9375 1.96875,-1.6875 Z m 0,0"
               id="id-af7d1f47-f10c-432f-b2bb-ea92bf20b816" />
          </g>
        </g>
        <g
           style="fill:#000000;fill-opacity:1"
           id="id-9d09d84c-f37c-4ff4-9419-0230b5ee27ea">
          <g
             transform="translate(164.403,134.765)"
             id="g4804">
            <path
               style="stroke:none;stroke-width:0"
               d="m 4.078125,-2.296875 h 2.78125 C 7,-2.296875 7.1875,-2.296875 7.1875,-2.5 7.1875,-2.6875 7,-2.6875 6.859375,-2.6875 h -2.78125 v -2.796875 c 0,-0.140625 0,-0.328125 -0.203125,-0.328125 -0.203125,0 -0.203125,0.1875 -0.203125,0.328125 V -2.6875 h -2.78125 c -0.140625,0 -0.328125,0 -0.328125,0.1875 0,0.203125 0.1875,0.203125 0.328125,0.203125 h 2.78125 V 0.5 c 0,0.140625 0,0.328125 0.203125,0.328125 0.203125,0 0.203125,-0.1875 0.203125,-0.328125 z m 0,0"
               id="id-41f3b62e-4822-4e15-87b6-2a9fddf249f6" />
          </g>
        </g>
        <g
           style="fill:#000000;fill-opacity:1"
           id="id-ac992f88-fabd-46a8-a0fb-3ad77bcd4efe">
          <g
             transform="translate(174.366,134.765)"
             id="g4808">
            <path
               style="stroke:none;stroke-width:0"
               d="m 7.578125,-6.921875 c 0,-0.03125 -0.015625,-0.109375 -0.109375,-0.109375 -0.03125,0 -0.046875,0.015625 -0.15625,0.125 L 6.625,-6.140625 C 6.53125,-6.28125 6.078125,-7.03125 4.96875,-7.03125 2.734375,-7.03125 0.5,-4.828125 0.5,-2.515625 c 0,1.59375 1.109375,2.734375 2.71875,2.734375 0.4375,0 0.890625,-0.09375 1.25,-0.234375 0.5,-0.203125 0.6875,-0.40625 0.859375,-0.609375 0.09375,0.25 0.359375,0.609375 0.453125,0.609375 0.046875,0 0.078125,-0.03125 0.078125,-0.03125 C 5.875,-0.0625 5.96875,-0.453125 6.015625,-0.65625 l 0.1875,-0.765625 C 6.25,-1.59375 6.296875,-1.765625 6.34375,-1.9375 c 0.109375,-0.4375 0.109375,-0.46875 0.6875,-0.46875 0.046875,0 0.15625,-0.015625 0.15625,-0.203125 0,-0.078125 -0.046875,-0.109375 -0.125,-0.109375 -0.234375,0 -0.828125,0.03125 -1.046875,0.03125 -0.3125,0 -1.09375,-0.03125 -1.40625,-0.03125 -0.078125,0 -0.203125,0 -0.203125,0.203125 0,0.109375 0.078125,0.109375 0.296875,0.109375 0.015625,0 0.296875,0 0.53125,0.015625 0.265625,0.03125 0.3125,0.0625 0.3125,0.1875 0,0.09375 -0.109375,0.53125 -0.21875,0.90625 -0.28125,1.09375 -1.5625,1.203125 -1.921875,1.203125 -0.953125,0 -2,-0.5625 -2,-2.09375 0,-0.3125 0.09375,-1.953125 1.140625,-3.25 0.546875,-0.671875 1.515625,-1.28125 2.5,-1.28125 1.015625,0 1.609375,0.765625 1.609375,1.921875 0,0.40625 -0.03125,0.40625 -0.03125,0.515625 0,0.09375 0.109375,0.09375 0.140625,0.09375 0.125,0 0.125,-0.015625 0.1875,-0.203125 z m 0,0"
               id="id-379ed6a5-9126-4856-90ae-5fb1686e6fbd" />
          </g>
        </g>
        <g
           style="fill:#000000;fill-opacity:1"
           id="id-29cf3d30-9569-4dc5-aa65-181492618316">
          <g
             transform="translate(182.199,136.259)"
             id="g4812">
            <path
               style="stroke:none;stroke-width:0"
               d="M 1.734375,-0.734375 C 1.671875,-0.5 1.4375,-0.125 1.078125,-0.125 c -0.015625,0 -0.234375,0 -0.375,-0.09375 0.28125,-0.09375 0.3125,-0.34375 0.3125,-0.390625 0,-0.15625 -0.125,-0.25 -0.28125,-0.25 -0.203125,0 -0.40625,0.15625 -0.40625,0.421875 0,0.34375 0.390625,0.5 0.734375,0.5 0.328125,0 0.609375,-0.1875 0.78125,-0.484375 C 2.015625,-0.0625 2.390625,0.0625 2.671875,0.0625 c 0.8125,0 1.234375,-0.859375 1.234375,-1.0625 0,-0.09375 -0.09375,-0.09375 -0.109375,-0.09375 -0.109375,0 -0.109375,0.046875 -0.140625,0.125 -0.140625,0.484375 -0.5625,0.84375 -0.953125,0.84375 -0.28125,0 -0.421875,-0.1875 -0.421875,-0.453125 0,-0.1875 0.171875,-0.8125 0.359375,-1.59375 C 2.78125,-2.703125 3.09375,-2.875 3.328125,-2.875 c 0.015625,0 0.21875,0 0.375,0.09375 -0.21875,0.0625 -0.3125,0.265625 -0.3125,0.390625 0,0.140625 0.125,0.25 0.28125,0.25 0.15625,0 0.390625,-0.125 0.390625,-0.421875 0,-0.390625 -0.453125,-0.515625 -0.71875,-0.515625 -0.359375,0 -0.640625,0.234375 -0.78125,0.5 -0.125,-0.28125 -0.453125,-0.5 -0.84375,-0.5 C 0.9375,-3.078125 0.5,-2.21875 0.5,-2 c 0,0.078125 0.09375,0.078125 0.109375,0.078125 0.09375,0 0.09375,-0.015625 0.140625,-0.109375 C 0.921875,-2.578125 1.359375,-2.875 1.703125,-2.875 1.9375,-2.875 2.125,-2.75 2.125,-2.421875 2.125,-2.28125 2.03125,-1.9375 1.96875,-1.6875 Z m 0,0"
               id="id-6e6b3b58-fa27-4113-b4bc-a9b07d868255" />
          </g>
        </g>
      </g>
    </g>
    <g
       transform="matrix(0.58332817,0,0,0.71794738,87.724714,7.4360635)"
       ns5:version="1.3.1"
       ns5:texconverter="pdflatex"
       ns5:pdfconverter="inkscape"
       ns5:text="$K_y + G_y\n$"
       ns5:preamble="/home/martinez/.config/inkscape/extensions/textext/default_packages.tex"
       ns5:scale="1.0"
       ns5:alignment="middle center"
       ns5:jacobian_sqrt="0.352778"
       id="g5102">
      <defs
         id="id-1e23ec91-33d3-4180-9f7f-3adb3046969f">
        <g
           id="id-1a452298-81bb-4dc2-9334-ab0043c24abe">
          <symbol
             overflow="visible"
             id="id-a549a4b3-e821-4e77-8ed3-ce20ad8cbf66">
            <path
               style="stroke:none;stroke-width:0"
               d=""
               id="id-ab8f693d-e60b-485a-913d-8595d5271fd1" />
          </symbol>
          <symbol
             overflow="visible"
             id="id-89943ed3-1b23-462e-bd4f-4d3819970ed5">
            <path
               style="stroke:none;stroke-width:0"
               d="M 5.078125,-4.03125 C 5.0625,-4.0625 5.03125,-4.140625 5.03125,-4.171875 c 0,0 0.171875,-0.140625 0.28125,-0.21875 l 1.75,-1.34375 C 8,-6.4375 8.390625,-6.46875 8.6875,-6.5 8.765625,-6.515625 8.859375,-6.515625 8.859375,-6.703125 8.859375,-6.734375 8.828125,-6.8125 8.75,-6.8125 c -0.21875,0 -0.46875,0.03125 -0.703125,0.03125 -0.359375,0 -0.75,-0.03125 -1.109375,-0.03125 -0.0625,0 -0.1875,0 -0.1875,0.203125 0,0.0625 0.046875,0.09375 0.125,0.109375 0.21875,0.015625 0.296875,0.0625 0.296875,0.203125 0,0.1875 -0.296875,0.421875 -0.359375,0.46875 L 2.9375,-2.84375 3.734375,-6.046875 C 3.8125,-6.40625 3.84375,-6.5 4.5625,-6.5 c 0.25,0 0.34375,0 0.34375,-0.203125 0,-0.078125 -0.078125,-0.109375 -0.140625,-0.109375 -0.28125,0 -1,0.03125 -1.28125,0.03125 C 3.203125,-6.78125 2.5,-6.8125 2.203125,-6.8125 2.140625,-6.8125 2,-6.8125 2,-6.625 2,-6.5 2.09375,-6.5 2.296875,-6.5 c 0.125,0 0.3125,0.015625 0.421875,0.015625 0.15625,0.03125 0.21875,0.046875 0.21875,0.171875 0,0.03125 0,0.0625 -0.03125,0.1875 L 1.5625,-0.78125 c -0.09375,0.390625 -0.109375,0.46875 -0.90625,0.46875 -0.171875,0 -0.28125,0 -0.28125,0.1875 C 0.375,0 0.5,0 0.53125,0 0.8125,0 1.515625,-0.03125 1.796875,-0.03125 2,-0.03125 2.21875,-0.015625 2.4375,-0.015625 2.65625,-0.015625 2.875,0 3.078125,0 3.15625,0 3.28125,0 3.28125,-0.203125 3.28125,-0.3125 3.1875,-0.3125 3,-0.3125 c -0.375,0 -0.640625,0 -0.640625,-0.171875 0,-0.078125 0.046875,-0.296875 0.078125,-0.4375 C 2.578125,-1.453125 2.71875,-1.96875 2.84375,-2.5 l 1.484375,-1.15625 1.15625,2.6875 c 0.125,0.265625 0.125,0.296875 0.125,0.34375 0,0.3125 -0.4375,0.3125 -0.53125,0.3125 -0.109375,0 -0.21875,0 -0.21875,0.203125 C 4.859375,0 4.984375,0 5,0 5.40625,0 5.828125,-0.03125 6.21875,-0.03125 6.4375,-0.03125 6.984375,0 7.203125,0 7.25,0 7.375,0 7.375,-0.203125 7.375,-0.3125 7.265625,-0.3125 7.171875,-0.3125 c -0.40625,0 -0.53125,-0.09375 -0.6875,-0.4375 z m 0,0"
               id="id-3868db0e-b78d-4ca2-b162-3dddbd41d13b" />
          </symbol>
          <symbol
             overflow="visible"
             id="id-f781e1e7-8d75-4dfb-8d8f-971fec6d80ba">
            <path
               style="stroke:none;stroke-width:0"
               d="m 7.578125,-6.921875 c 0,-0.03125 -0.015625,-0.109375 -0.109375,-0.109375 -0.03125,0 -0.046875,0.015625 -0.15625,0.125 L 6.625,-6.140625 C 6.53125,-6.28125 6.078125,-7.03125 4.96875,-7.03125 2.734375,-7.03125 0.5,-4.828125 0.5,-2.515625 c 0,1.59375 1.109375,2.734375 2.71875,2.734375 0.4375,0 0.890625,-0.09375 1.25,-0.234375 0.5,-0.203125 0.6875,-0.40625 0.859375,-0.609375 0.09375,0.25 0.359375,0.609375 0.453125,0.609375 0.046875,0 0.078125,-0.03125 0.078125,-0.03125 C 5.875,-0.0625 5.96875,-0.453125 6.015625,-0.65625 l 0.1875,-0.765625 C 6.25,-1.59375 6.296875,-1.765625 6.34375,-1.9375 c 0.109375,-0.4375 0.109375,-0.46875 0.6875,-0.46875 0.046875,0 0.15625,-0.015625 0.15625,-0.203125 0,-0.078125 -0.046875,-0.109375 -0.125,-0.109375 -0.234375,0 -0.828125,0.03125 -1.046875,0.03125 -0.3125,0 -1.09375,-0.03125 -1.40625,-0.03125 -0.078125,0 -0.203125,0 -0.203125,0.203125 0,0.109375 0.078125,0.109375 0.296875,0.109375 0.015625,0 0.296875,0 0.53125,0.015625 0.265625,0.03125 0.3125,0.0625 0.3125,0.1875 0,0.09375 -0.109375,0.53125 -0.21875,0.90625 -0.28125,1.09375 -1.5625,1.203125 -1.921875,1.203125 -0.953125,0 -2,-0.5625 -2,-2.09375 0,-0.3125 0.09375,-1.953125 1.140625,-3.25 0.546875,-0.671875 1.515625,-1.28125 2.5,-1.28125 1.015625,0 1.609375,0.765625 1.609375,1.921875 0,0.40625 -0.03125,0.40625 -0.03125,0.515625 0,0.09375 0.109375,0.09375 0.140625,0.09375 0.125,0 0.125,-0.015625 0.1875,-0.203125 z m 0,0"
               id="id-83ffff54-e205-45b5-a7c2-1bc45ea618a3" />
          </symbol>
          <symbol
             overflow="visible"
             id="id-bb4ab9b8-288f-4173-85b1-b19717ca0b8a">
            <path
               style="stroke:none;stroke-width:0"
               d=""
               id="id-e697ceb3-007a-4bfc-ad4a-527f4ff18376" />
          </symbol>
          <symbol
             overflow="visible"
             id="id-a0333ead-c926-4c76-a645-5924fe14d11e">
            <path
               style="stroke:none;stroke-width:0"
               d="M 3.875,-2.625 C 3.90625,-2.71875 3.90625,-2.734375 3.90625,-2.78125 3.90625,-2.921875 3.796875,-3 3.671875,-3 3.59375,-3 3.46875,-2.96875 3.390625,-2.84375 3.359375,-2.796875 3.3125,-2.578125 3.28125,-2.4375 L 3.125,-1.859375 c -0.03125,0.171875 -0.25,1.046875 -0.28125,1.125 0,0 -0.3125,0.609375 -0.84375,0.609375 -0.484375,0 -0.484375,-0.453125 -0.484375,-0.578125 0,-0.375 0.15625,-0.8125 0.375,-1.359375 C 1.96875,-2.28125 2,-2.359375 2,-2.484375 2,-2.8125 1.71875,-3.078125 1.34375,-3.078125 0.640625,-3.078125 0.328125,-2.125 0.328125,-2 c 0,0.078125 0.09375,0.078125 0.125,0.078125 0.09375,0 0.09375,-0.03125 0.125,-0.109375 C 0.75,-2.609375 1.046875,-2.875 1.328125,-2.875 1.4375,-2.875 1.5,-2.796875 1.5,-2.640625 c 0,0.171875 -0.0625,0.3125 -0.09375,0.40625 C 1.0625,-1.375 1,-1.125 1,-0.8125 1,-0.703125 1,-0.375 1.265625,-0.140625 1.484375,0.03125 1.78125,0.0625 1.96875,0.0625 2.25,0.0625 2.5,-0.03125 2.71875,-0.25 2.640625,0.140625 2.5625,0.4375 2.265625,0.78125 2.078125,1 1.796875,1.21875 1.421875,1.21875 c -0.046875,0 -0.375,0 -0.515625,-0.21875 0.375,-0.046875 0.375,-0.375 0.375,-0.390625 0,-0.21875 -0.203125,-0.265625 -0.265625,-0.265625 -0.171875,0 -0.40625,0.140625 -0.40625,0.46875 0,0.34375 0.328125,0.609375 0.828125,0.609375 C 2.140625,1.421875 3,0.875 3.21875,0 Z m 0,0"
               id="id-60f235d7-06f8-4f97-9548-a05c7b669257" />
          </symbol>
          <symbol
             overflow="visible"
             id="id-e97454f1-4f33-44f0-b5bc-8ccc6dc16dc3">
            <path
               style="stroke:none;stroke-width:0"
               d=""
               id="id-736b6dcc-1d91-4751-b13a-3585bdc37e66" />
          </symbol>
          <symbol
             overflow="visible"
             id="id-89b97f03-2550-4ecb-a6af-3b1425a1f0a2">
            <path
               style="stroke:none;stroke-width:0"
               d="m 4.078125,-2.296875 h 2.78125 C 7,-2.296875 7.1875,-2.296875 7.1875,-2.5 7.1875,-2.6875 7,-2.6875 6.859375,-2.6875 h -2.78125 v -2.796875 c 0,-0.140625 0,-0.328125 -0.203125,-0.328125 -0.203125,0 -0.203125,0.1875 -0.203125,0.328125 V -2.6875 h -2.78125 c -0.140625,0 -0.328125,0 -0.328125,0.1875 0,0.203125 0.1875,0.203125 0.328125,0.203125 h 2.78125 V 0.5 c 0,0.140625 0,0.328125 0.203125,0.328125 0.203125,0 0.203125,-0.1875 0.203125,-0.328125 z m 0,0"
               id="id-1a949147-9317-47b3-b1e4-aa17d3da59bd" />
          </symbol>
        </g>
      </defs>
      <g
         id="id-7348cbbf-3329-4924-ae1f-764299c47a36"
         transform="translate(-149.087,-127.734)">
        <g
           style="fill:#000000;fill-opacity:1"
           id="id-d071422a-371a-4c82-9e79-e82ad04f9171">
          <g
             transform="translate(148.712,134.765)"
             id="g5082">
            <path
               style="stroke:none;stroke-width:0"
               d="M 5.078125,-4.03125 C 5.0625,-4.0625 5.03125,-4.140625 5.03125,-4.171875 c 0,0 0.171875,-0.140625 0.28125,-0.21875 l 1.75,-1.34375 C 8,-6.4375 8.390625,-6.46875 8.6875,-6.5 8.765625,-6.515625 8.859375,-6.515625 8.859375,-6.703125 8.859375,-6.734375 8.828125,-6.8125 8.75,-6.8125 c -0.21875,0 -0.46875,0.03125 -0.703125,0.03125 -0.359375,0 -0.75,-0.03125 -1.109375,-0.03125 -0.0625,0 -0.1875,0 -0.1875,0.203125 0,0.0625 0.046875,0.09375 0.125,0.109375 0.21875,0.015625 0.296875,0.0625 0.296875,0.203125 0,0.1875 -0.296875,0.421875 -0.359375,0.46875 L 2.9375,-2.84375 3.734375,-6.046875 C 3.8125,-6.40625 3.84375,-6.5 4.5625,-6.5 c 0.25,0 0.34375,0 0.34375,-0.203125 0,-0.078125 -0.078125,-0.109375 -0.140625,-0.109375 -0.28125,0 -1,0.03125 -1.28125,0.03125 C 3.203125,-6.78125 2.5,-6.8125 2.203125,-6.8125 2.140625,-6.8125 2,-6.8125 2,-6.625 2,-6.5 2.09375,-6.5 2.296875,-6.5 c 0.125,0 0.3125,0.015625 0.421875,0.015625 0.15625,0.03125 0.21875,0.046875 0.21875,0.171875 0,0.03125 0,0.0625 -0.03125,0.1875 L 1.5625,-0.78125 c -0.09375,0.390625 -0.109375,0.46875 -0.90625,0.46875 -0.171875,0 -0.28125,0 -0.28125,0.1875 C 0.375,0 0.5,0 0.53125,0 0.8125,0 1.515625,-0.03125 1.796875,-0.03125 2,-0.03125 2.21875,-0.015625 2.4375,-0.015625 2.65625,-0.015625 2.875,0 3.078125,0 3.15625,0 3.28125,0 3.28125,-0.203125 3.28125,-0.3125 3.1875,-0.3125 3,-0.3125 c -0.375,0 -0.640625,0 -0.640625,-0.171875 0,-0.078125 0.046875,-0.296875 0.078125,-0.4375 C 2.578125,-1.453125 2.71875,-1.96875 2.84375,-2.5 l 1.484375,-1.15625 1.15625,2.6875 c 0.125,0.265625 0.125,0.296875 0.125,0.34375 0,0.3125 -0.4375,0.3125 -0.53125,0.3125 -0.109375,0 -0.21875,0 -0.21875,0.203125 C 4.859375,0 4.984375,0 5,0 5.40625,0 5.828125,-0.03125 6.21875,-0.03125 6.4375,-0.03125 6.984375,0 7.203125,0 7.25,0 7.375,0 7.375,-0.203125 7.375,-0.3125 7.265625,-0.3125 7.171875,-0.3125 c -0.40625,0 -0.53125,-0.09375 -0.6875,-0.4375 z m 0,0"
               id="id-5aca4d87-9bf4-4e2d-b52d-6c762a180e18" />
          </g>
        </g>
        <g
           style="fill:#000000;fill-opacity:1"
           id="id-332dd43c-f080-490a-9079-5b15b579628f">
          <g
             transform="translate(157.174,136.259)"
             id="g5086">
            <path
               style="stroke:none;stroke-width:0"
               d="M 3.875,-2.625 C 3.90625,-2.71875 3.90625,-2.734375 3.90625,-2.78125 3.90625,-2.921875 3.796875,-3 3.671875,-3 3.59375,-3 3.46875,-2.96875 3.390625,-2.84375 3.359375,-2.796875 3.3125,-2.578125 3.28125,-2.4375 L 3.125,-1.859375 c -0.03125,0.171875 -0.25,1.046875 -0.28125,1.125 0,0 -0.3125,0.609375 -0.84375,0.609375 -0.484375,0 -0.484375,-0.453125 -0.484375,-0.578125 0,-0.375 0.15625,-0.8125 0.375,-1.359375 C 1.96875,-2.28125 2,-2.359375 2,-2.484375 2,-2.8125 1.71875,-3.078125 1.34375,-3.078125 0.640625,-3.078125 0.328125,-2.125 0.328125,-2 c 0,0.078125 0.09375,0.078125 0.125,0.078125 0.09375,0 0.09375,-0.03125 0.125,-0.109375 C 0.75,-2.609375 1.046875,-2.875 1.328125,-2.875 1.4375,-2.875 1.5,-2.796875 1.5,-2.640625 c 0,0.171875 -0.0625,0.3125 -0.09375,0.40625 C 1.0625,-1.375 1,-1.125 1,-0.8125 1,-0.703125 1,-0.375 1.265625,-0.140625 1.484375,0.03125 1.78125,0.0625 1.96875,0.0625 2.25,0.0625 2.5,-0.03125 2.71875,-0.25 2.640625,0.140625 2.5625,0.4375 2.265625,0.78125 2.078125,1 1.796875,1.21875 1.421875,1.21875 c -0.046875,0 -0.375,0 -0.515625,-0.21875 0.375,-0.046875 0.375,-0.375 0.375,-0.390625 0,-0.21875 -0.203125,-0.265625 -0.265625,-0.265625 -0.171875,0 -0.40625,0.140625 -0.40625,0.46875 0,0.34375 0.328125,0.609375 0.828125,0.609375 C 2.140625,1.421875 3,0.875 3.21875,0 Z m 0,0"
               id="id-8faea859-34c1-4d15-a20b-6d8f39760eb0" />
          </g>
        </g>
        <g
           style="fill:#000000;fill-opacity:1"
           id="id-9fca10e2-2855-497e-a5b6-065f175033af">
          <g
             transform="translate(164.176,134.765)"
             id="g5090">
            <path
               style="stroke:none;stroke-width:0"
               d="m 4.078125,-2.296875 h 2.78125 C 7,-2.296875 7.1875,-2.296875 7.1875,-2.5 7.1875,-2.6875 7,-2.6875 6.859375,-2.6875 h -2.78125 v -2.796875 c 0,-0.140625 0,-0.328125 -0.203125,-0.328125 -0.203125,0 -0.203125,0.1875 -0.203125,0.328125 V -2.6875 h -2.78125 c -0.140625,0 -0.328125,0 -0.328125,0.1875 0,0.203125 0.1875,0.203125 0.328125,0.203125 h 2.78125 V 0.5 c 0,0.140625 0,0.328125 0.203125,0.328125 0.203125,0 0.203125,-0.1875 0.203125,-0.328125 z m 0,0"
               id="id-e7a59dec-f813-4f4b-b332-9658569f4771" />
          </g>
        </g>
        <g
           style="fill:#000000;fill-opacity:1"
           id="id-551153e8-dfe1-4679-977c-b36e42eca2cb">
          <g
             transform="translate(174.139,134.765)"
             id="g5094">
            <path
               style="stroke:none;stroke-width:0"
               d="m 7.578125,-6.921875 c 0,-0.03125 -0.015625,-0.109375 -0.109375,-0.109375 -0.03125,0 -0.046875,0.015625 -0.15625,0.125 L 6.625,-6.140625 C 6.53125,-6.28125 6.078125,-7.03125 4.96875,-7.03125 2.734375,-7.03125 0.5,-4.828125 0.5,-2.515625 c 0,1.59375 1.109375,2.734375 2.71875,2.734375 0.4375,0 0.890625,-0.09375 1.25,-0.234375 0.5,-0.203125 0.6875,-0.40625 0.859375,-0.609375 0.09375,0.25 0.359375,0.609375 0.453125,0.609375 0.046875,0 0.078125,-0.03125 0.078125,-0.03125 C 5.875,-0.0625 5.96875,-0.453125 6.015625,-0.65625 l 0.1875,-0.765625 C 6.25,-1.59375 6.296875,-1.765625 6.34375,-1.9375 c 0.109375,-0.4375 0.109375,-0.46875 0.6875,-0.46875 0.046875,0 0.15625,-0.015625 0.15625,-0.203125 0,-0.078125 -0.046875,-0.109375 -0.125,-0.109375 -0.234375,0 -0.828125,0.03125 -1.046875,0.03125 -0.3125,0 -1.09375,-0.03125 -1.40625,-0.03125 -0.078125,0 -0.203125,0 -0.203125,0.203125 0,0.109375 0.078125,0.109375 0.296875,0.109375 0.015625,0 0.296875,0 0.53125,0.015625 0.265625,0.03125 0.3125,0.0625 0.3125,0.1875 0,0.09375 -0.109375,0.53125 -0.21875,0.90625 -0.28125,1.09375 -1.5625,1.203125 -1.921875,1.203125 -0.953125,0 -2,-0.5625 -2,-2.09375 0,-0.3125 0.09375,-1.953125 1.140625,-3.25 0.546875,-0.671875 1.515625,-1.28125 2.5,-1.28125 1.015625,0 1.609375,0.765625 1.609375,1.921875 0,0.40625 -0.03125,0.40625 -0.03125,0.515625 0,0.09375 0.109375,0.09375 0.140625,0.09375 0.125,0 0.125,-0.015625 0.1875,-0.203125 z m 0,0"
               id="id-c464e63a-1972-4c3b-bef7-8afa3df14f38" />
          </g>
        </g>
        <g
           style="fill:#000000;fill-opacity:1"
           id="id-2f7a86de-3725-407f-9a7d-750d543d6a0e">
          <g
             transform="translate(181.972,136.259)"
             id="g5098">
            <path
               style="stroke:none;stroke-width:0"
               d="M 3.875,-2.625 C 3.90625,-2.71875 3.90625,-2.734375 3.90625,-2.78125 3.90625,-2.921875 3.796875,-3 3.671875,-3 3.59375,-3 3.46875,-2.96875 3.390625,-2.84375 3.359375,-2.796875 3.3125,-2.578125 3.28125,-2.4375 L 3.125,-1.859375 c -0.03125,0.171875 -0.25,1.046875 -0.28125,1.125 0,0 -0.3125,0.609375 -0.84375,0.609375 -0.484375,0 -0.484375,-0.453125 -0.484375,-0.578125 0,-0.375 0.15625,-0.8125 0.375,-1.359375 C 1.96875,-2.28125 2,-2.359375 2,-2.484375 2,-2.8125 1.71875,-3.078125 1.34375,-3.078125 0.640625,-3.078125 0.328125,-2.125 0.328125,-2 c 0,0.078125 0.09375,0.078125 0.125,0.078125 0.09375,0 0.09375,-0.03125 0.125,-0.109375 C 0.75,-2.609375 1.046875,-2.875 1.328125,-2.875 1.4375,-2.875 1.5,-2.796875 1.5,-2.640625 c 0,0.171875 -0.0625,0.3125 -0.09375,0.40625 C 1.0625,-1.375 1,-1.125 1,-0.8125 1,-0.703125 1,-0.375 1.265625,-0.140625 1.484375,0.03125 1.78125,0.0625 1.96875,0.0625 2.25,0.0625 2.5,-0.03125 2.71875,-0.25 2.640625,0.140625 2.5625,0.4375 2.265625,0.78125 2.078125,1 1.796875,1.21875 1.421875,1.21875 c -0.046875,0 -0.375,0 -0.515625,-0.21875 0.375,-0.046875 0.375,-0.375 0.375,-0.390625 0,-0.21875 -0.203125,-0.265625 -0.265625,-0.265625 -0.171875,0 -0.40625,0.140625 -0.40625,0.46875 0,0.34375 0.328125,0.609375 0.828125,0.609375 C 2.140625,1.421875 3,0.875 3.21875,0 Z m 0,0"
               id="id-e7a40482-ab78-4822-9bba-85b5fa3a136f" />
          </g>
        </g>
      </g>
    </g>
    <path
       style="fill:none;stroke:#000000;stroke-width:0.311936;stroke-linecap:butt;stroke-linejoin:miter;stroke-miterlimit:4;stroke-dasharray:1.24775, 0.311936;stroke-dashoffset:0;stroke-opacity:1;marker-start:url(#marker5385)"
       d="m 117.52925,55.718833 54.52577,-26.986429 v 0 0 0"
       id="path5375" />
    <g
       transform="matrix(0.62968343,0,0,0.59573489,168.10162,20.68021)"
       ns5:version="1.3.1"
       ns5:texconverter="pdflatex"
       ns5:pdfconverter="inkscape"
       ns5:text="$E_{Corte}$"
       ns5:preamble="/home/martinez/.config/inkscape/extensions/textext/default_packages.tex"
       ns5:scale="1.0"
       ns5:alignment="middle center"
       ns5:inkscapeversion="1.0.2"
       ns5:jacobian_sqrt="0.352778"
       id="g5730">
      <defs
         id="id-af7a29c7-1c07-455f-b819-1d14c32ebe40">
        <g
           id="id-fd8b114f-5fb6-4487-9769-af9cecef16df">
          <symbol
             overflow="visible"
             id="id-7f41dd1b-0e21-4ef6-817a-0efe014e84ee">
            <path
               style="stroke:none;stroke-width:0"
               d=""
               id="id-d3e2d683-98ea-42cb-9a5c-2774e22e790e" />
          </symbol>
          <symbol
             overflow="visible"
             id="id-f0a3b0e8-d72c-42dc-9bb7-f09cd8a8e861">
            <path
               style="stroke:none;stroke-width:0"
               d="M 7.0625,-2.328125 C 7.078125,-2.375 7.109375,-2.4375 7.109375,-2.46875 c 0,0 0,-0.109375 -0.125,-0.109375 -0.09375,0 -0.109375,0.0625 -0.125,0.125 C 6.203125,-0.984375 5.84375,-0.3125 4.140625,-0.3125 H 2.6875 c -0.140625,0 -0.171875,0 -0.21875,0 -0.109375,-0.015625 -0.140625,-0.03125 -0.140625,-0.109375 0,-0.03125 0,-0.046875 0.046875,-0.21875 L 3.0625,-3.375 h 0.984375 c 0.84375,0 0.84375,0.21875 0.84375,0.46875 0,0.0625 0,0.1875 -0.0625,0.484375 C 4.8125,-2.375 4.796875,-2.34375 4.796875,-2.3125 c 0,0.046875 0.03125,0.109375 0.125,0.109375 C 5,-2.203125 5.03125,-2.25 5.078125,-2.40625 l 0.5625,-2.328125 c 0,-0.0625 -0.046875,-0.109375 -0.125,-0.109375 -0.078125,0 -0.109375,0.0625 -0.125,0.171875 -0.21875,0.765625 -0.390625,1 -1.3125,1 h -0.9375 l 0.59375,-2.40625 C 3.828125,-6.4375 3.84375,-6.46875 4.28125,-6.46875 H 5.6875 c 1.203125,0 1.515625,0.28125 1.515625,1.109375 0,0.234375 0,0.25 -0.046875,0.53125 0,0.046875 -0.015625,0.125 -0.015625,0.171875 0,0.046875 0.03125,0.125 0.125,0.125 0.109375,0 0.125,-0.0625 0.140625,-0.25 L 7.609375,-6.515625 C 7.640625,-6.78125 7.59375,-6.78125 7.34375,-6.78125 H 2.296875 c -0.1875,0 -0.296875,0 -0.296875,0.203125 0,0.109375 0.09375,0.109375 0.28125,0.109375 0.375,0 0.65625,0 0.65625,0.171875 0,0.046875 0,0.0625 -0.0625,0.25 L 1.5625,-0.78125 c -0.09375,0.390625 -0.109375,0.46875 -0.90625,0.46875 -0.171875,0 -0.28125,0 -0.28125,0.1875 C 0.375,0 0.46875,0 0.65625,0 h 5.171875 c 0.234375,0 0.25,-0.015625 0.3125,-0.171875 z m 0,0"
               id="id-e741b658-5fa4-48b5-9351-79a41287793a" />
          </symbol>
          <symbol
             overflow="visible"
             id="id-0f5c431f-ddd6-49d0-996e-dcee7ce4cf79">
            <path
               style="stroke:none;stroke-width:0"
               d=""
               id="id-4db4233f-d5f3-460a-ba5c-52950abc4c35" />
          </symbol>
          <symbol
             overflow="visible"
             id="id-9e5bfda9-3b6f-455b-9233-708d1593457f">
            <path
               style="stroke:none;stroke-width:0"
               d="m 5.875,-4.8125 c 0,-0.03125 -0.015625,-0.09375 -0.09375,-0.09375 -0.046875,0 -0.0625,0.015625 -0.125,0.09375 l -0.5,0.53125 c -0.0625,-0.078125 -0.453125,-0.625 -1.3125,-0.625 -1.703125,0 -3.359375,1.5 -3.359375,3.078125 0,1.140625 0.890625,1.96875 2.140625,1.96875 0.375,0 1.046875,-0.078125 1.765625,-0.6875 0.546875,-0.46875 0.703125,-1.0625 0.703125,-1.125 0,-0.09375 -0.078125,-0.09375 -0.125,-0.09375 -0.078125,0 -0.09375,0.03125 -0.125,0.109375 -0.28125,0.953125 -1.25,1.546875 -2.09375,1.546875 -0.75,0 -1.5625,-0.40625 -1.5625,-1.5 0,-0.203125 0.046875,-1.296875 0.84375,-2.1875 0.484375,-0.53125 1.21875,-0.84375 1.875,-0.84375 0.8125,0 1.28125,0.578125 1.28125,1.359375 0,0.1875 -0.015625,0.25 -0.015625,0.28125 0,0.09375 0.09375,0.09375 0.125,0.09375 0.109375,0 0.109375,-0.015625 0.140625,-0.15625 z m 0,0"
               id="id-702246b1-4922-4e47-93a6-bf909edb4abe" />
          </symbol>
          <symbol
             overflow="visible"
             id="id-41d08770-c623-4fe4-8864-a0b746d008fa">
            <path
               style="stroke:none;stroke-width:0"
               d="m 3.703125,-1.859375 c 0,-0.765625 -0.578125,-1.21875 -1.265625,-1.21875 -1.03125,0 -2,0.96875 -2,1.921875 0,0.703125 0.5,1.21875 1.265625,1.21875 1,0 2,-0.90625 2,-1.921875 z m -2,1.734375 c -0.34375,0 -0.6875,-0.21875 -0.6875,-0.78125 0,-0.28125 0.125,-0.96875 0.40625,-1.359375 C 1.71875,-2.703125 2.125,-2.875 2.4375,-2.875 c 0.375,0 0.6875,0.25 0.6875,0.765625 C 3.125,-1.9375 3.046875,-1.25 2.734375,-0.765625 2.46875,-0.34375 2.0625,-0.125 1.703125,-0.125 Z m 0,0"
               id="id-ba862b83-14ce-42ee-991a-d2f822ad86b1" />
          </symbol>
          <symbol
             overflow="visible"
             id="id-560e6a1f-c6e5-45d1-9dbf-ad6f41d38dec">
            <path
               style="stroke:none;stroke-width:0"
               d="m 1.640625,-1.40625 c 0,-0.046875 0.171875,-0.671875 0.171875,-0.703125 0.015625,-0.0625 0.21875,-0.40625 0.453125,-0.578125 0.0625,-0.046875 0.25,-0.1875 0.5625,-0.1875 0.0625,0 0.234375,0 0.375,0.09375 -0.21875,0.0625 -0.296875,0.265625 -0.296875,0.390625 0,0.140625 0.109375,0.25 0.265625,0.25 0.171875,0 0.390625,-0.125 0.390625,-0.421875 0,-0.359375 -0.375,-0.515625 -0.734375,-0.515625 -0.359375,0 -0.671875,0.15625 -0.984375,0.5 -0.125,-0.421875 -0.546875,-0.5 -0.71875,-0.5 -0.25,0 -0.421875,0.171875 -0.546875,0.359375 -0.15625,0.265625 -0.25,0.671875 -0.25,0.71875 0,0.078125 0.09375,0.078125 0.125,0.078125 0.09375,0 0.09375,-0.015625 0.140625,-0.203125 0.109375,-0.421875 0.25,-0.75 0.515625,-0.75 0.1875,0 0.234375,0.15625 0.234375,0.34375 0,0.125 -0.0625,0.390625 -0.125,0.578125 -0.046875,0.1875 -0.109375,0.46875 -0.140625,0.625 L 0.84375,-0.4375 C 0.828125,-0.34375 0.78125,-0.171875 0.78125,-0.15625 0.78125,0 0.90625,0.0625 1.015625,0.0625 1.125,0.0625 1.265625,0 1.3125,-0.125 1.328125,-0.171875 1.40625,-0.484375 1.453125,-0.65625 Z m 0,0"
               id="id-0cd3f140-b87c-4935-b09a-7889df1c4722" />
          </symbol>
          <symbol
             overflow="visible"
             id="id-6b354941-ee3d-46c4-805c-57ef399e3c3b">
            <path
               style="stroke:none;stroke-width:0"
               d="m 1.71875,-2.75 h 0.703125 c 0.140625,0 0.21875,0 0.21875,-0.15625 C 2.640625,-3 2.5625,-3 2.4375,-3 H 1.78125 l 0.25,-1.03125 C 2.046875,-4.0625 2.0625,-4.109375 2.0625,-4.125 c 0,-0.140625 -0.109375,-0.234375 -0.25,-0.234375 -0.171875,0 -0.265625,0.125 -0.328125,0.296875 C 1.4375,-3.875 1.53125,-4.21875 1.21875,-3 H 0.515625 c -0.125,0 -0.21875,0 -0.21875,0.15625 C 0.296875,-2.75 0.375,-2.75 0.5,-2.75 H 1.15625 L 0.75,-1.109375 C 0.703125,-0.9375 0.640625,-0.6875 0.640625,-0.59375 c 0,0.40625 0.359375,0.65625 0.75,0.65625 0.78125,0 1.21875,-0.96875 1.21875,-1.0625 0,-0.09375 -0.09375,-0.09375 -0.109375,-0.09375 -0.09375,0 -0.09375,0.015625 -0.15625,0.140625 -0.1875,0.4375 -0.546875,0.828125 -0.921875,0.828125 -0.15625,0 -0.25,-0.09375 -0.25,-0.34375 0,-0.0625 0.03125,-0.21875 0.046875,-0.28125 z m 0,0"
               id="id-9f07aec8-e76d-4373-b125-511a1d652ff7" />
          </symbol>
          <symbol
             overflow="visible"
             id="id-a6093a03-a536-4b00-8f01-060374637327">
            <path
               style="stroke:none;stroke-width:0"
               d="m 1.5625,-1.59375 c 0.1875,0 0.75,-0.015625 1.125,-0.140625 0.515625,-0.1875 0.609375,-0.515625 0.609375,-0.71875 0,-0.390625 -0.390625,-0.625 -0.859375,-0.625 -0.84375,0 -1.96875,0.640625 -1.96875,1.84375 0,0.703125 0.4375,1.296875 1.25,1.296875 1.1875,0 1.734375,-0.6875 1.734375,-0.78125 0,-0.046875 -0.0625,-0.125 -0.125,-0.125 -0.03125,0 -0.046875,0.015625 -0.109375,0.078125 C 2.671875,-0.125 1.859375,-0.125 1.734375,-0.125 1.3125,-0.125 1.03125,-0.40625 1.03125,-0.96875 c 0,-0.09375 0,-0.234375 0.09375,-0.625 z M 1.171875,-1.78125 C 1.46875,-2.796875 2.234375,-2.875 2.4375,-2.875 2.734375,-2.875 3,-2.71875 3,-2.453125 3,-1.78125 1.8125,-1.78125 1.515625,-1.78125 Z m 0,0"
               id="id-317e8f70-8bed-4d55-b934-77fd20c826aa" />
          </symbol>
        </g>
      </defs>
      <g
         id="id-d2d3122f-163f-4cc7-9a63-9bad81bf6476"
         transform="translate(-149.087,-127.984)">
        <g
           style="fill:#000000;fill-opacity:1"
           id="id-29f90296-6a5f-4571-a16e-d9ad0cfc8ed7">
          <g
             transform="translate(148.712,134.765)"
             id="g5708">
            <path
               style="stroke:none;stroke-width:0"
               d="M 7.0625,-2.328125 C 7.078125,-2.375 7.109375,-2.4375 7.109375,-2.46875 c 0,0 0,-0.109375 -0.125,-0.109375 -0.09375,0 -0.109375,0.0625 -0.125,0.125 C 6.203125,-0.984375 5.84375,-0.3125 4.140625,-0.3125 H 2.6875 c -0.140625,0 -0.171875,0 -0.21875,0 -0.109375,-0.015625 -0.140625,-0.03125 -0.140625,-0.109375 0,-0.03125 0,-0.046875 0.046875,-0.21875 L 3.0625,-3.375 h 0.984375 c 0.84375,0 0.84375,0.21875 0.84375,0.46875 0,0.0625 0,0.1875 -0.0625,0.484375 C 4.8125,-2.375 4.796875,-2.34375 4.796875,-2.3125 c 0,0.046875 0.03125,0.109375 0.125,0.109375 C 5,-2.203125 5.03125,-2.25 5.078125,-2.40625 l 0.5625,-2.328125 c 0,-0.0625 -0.046875,-0.109375 -0.125,-0.109375 -0.078125,0 -0.109375,0.0625 -0.125,0.171875 -0.21875,0.765625 -0.390625,1 -1.3125,1 h -0.9375 l 0.59375,-2.40625 C 3.828125,-6.4375 3.84375,-6.46875 4.28125,-6.46875 H 5.6875 c 1.203125,0 1.515625,0.28125 1.515625,1.109375 0,0.234375 0,0.25 -0.046875,0.53125 0,0.046875 -0.015625,0.125 -0.015625,0.171875 0,0.046875 0.03125,0.125 0.125,0.125 0.109375,0 0.125,-0.0625 0.140625,-0.25 L 7.609375,-6.515625 C 7.640625,-6.78125 7.59375,-6.78125 7.34375,-6.78125 H 2.296875 c -0.1875,0 -0.296875,0 -0.296875,0.203125 0,0.109375 0.09375,0.109375 0.28125,0.109375 0.375,0 0.65625,0 0.65625,0.171875 0,0.046875 0,0.0625 -0.0625,0.25 L 1.5625,-0.78125 c -0.09375,0.390625 -0.109375,0.46875 -0.90625,0.46875 -0.171875,0 -0.28125,0 -0.28125,0.1875 C 0.375,0 0.46875,0 0.65625,0 h 5.171875 c 0.234375,0 0.25,-0.015625 0.3125,-0.171875 z m 0,0"
               id="id-a2becba1-cdbb-4944-b6d9-c2c70c898d5e" />
          </g>
        </g>
        <g
           style="fill:#000000;fill-opacity:1"
           id="id-a6922653-e214-4a37-83ad-688cd6778935">
          <g
             transform="translate(156.067,136.259)"
             id="g5712">
            <path
               style="stroke:none;stroke-width:0"
               d="m 5.875,-4.8125 c 0,-0.03125 -0.015625,-0.09375 -0.09375,-0.09375 -0.046875,0 -0.0625,0.015625 -0.125,0.09375 l -0.5,0.53125 c -0.0625,-0.078125 -0.453125,-0.625 -1.3125,-0.625 -1.703125,0 -3.359375,1.5 -3.359375,3.078125 0,1.140625 0.890625,1.96875 2.140625,1.96875 0.375,0 1.046875,-0.078125 1.765625,-0.6875 0.546875,-0.46875 0.703125,-1.0625 0.703125,-1.125 0,-0.09375 -0.078125,-0.09375 -0.125,-0.09375 -0.078125,0 -0.09375,0.03125 -0.125,0.109375 -0.28125,0.953125 -1.25,1.546875 -2.09375,1.546875 -0.75,0 -1.5625,-0.40625 -1.5625,-1.5 0,-0.203125 0.046875,-1.296875 0.84375,-2.1875 0.484375,-0.53125 1.21875,-0.84375 1.875,-0.84375 0.8125,0 1.28125,0.578125 1.28125,1.359375 0,0.1875 -0.015625,0.25 -0.015625,0.28125 0,0.09375 0.09375,0.09375 0.125,0.09375 0.109375,0 0.109375,-0.015625 0.140625,-0.15625 z m 0,0"
               id="id-e0fb958e-d618-4689-b881-67cc3d898f57" />
          </g>
        </g>
        <g
           style="fill:#000000;fill-opacity:1"
           id="id-32f398f8-ce00-4fd5-9324-358dcf2a6fef">
          <g
             transform="translate(162.269,136.259)"
             id="g5716">
            <path
               style="stroke:none;stroke-width:0"
               d="m 3.703125,-1.859375 c 0,-0.765625 -0.578125,-1.21875 -1.265625,-1.21875 -1.03125,0 -2,0.96875 -2,1.921875 0,0.703125 0.5,1.21875 1.265625,1.21875 1,0 2,-0.90625 2,-1.921875 z m -2,1.734375 c -0.34375,0 -0.6875,-0.21875 -0.6875,-0.78125 0,-0.28125 0.125,-0.96875 0.40625,-1.359375 C 1.71875,-2.703125 2.125,-2.875 2.4375,-2.875 c 0.375,0 0.6875,0.25 0.6875,0.765625 C 3.125,-1.9375 3.046875,-1.25 2.734375,-0.765625 2.46875,-0.34375 2.0625,-0.125 1.703125,-0.125 Z m 0,0"
               id="id-7f1f45cc-a8b6-4af7-8626-64ca486bf020" />
          </g>
          <g
             transform="translate(166.202,136.259)"
             id="g5719">
            <path
               style="stroke:none;stroke-width:0"
               d="m 1.640625,-1.40625 c 0,-0.046875 0.171875,-0.671875 0.171875,-0.703125 0.015625,-0.0625 0.21875,-0.40625 0.453125,-0.578125 0.0625,-0.046875 0.25,-0.1875 0.5625,-0.1875 0.0625,0 0.234375,0 0.375,0.09375 -0.21875,0.0625 -0.296875,0.265625 -0.296875,0.390625 0,0.140625 0.109375,0.25 0.265625,0.25 0.171875,0 0.390625,-0.125 0.390625,-0.421875 0,-0.359375 -0.375,-0.515625 -0.734375,-0.515625 -0.359375,0 -0.671875,0.15625 -0.984375,0.5 -0.125,-0.421875 -0.546875,-0.5 -0.71875,-0.5 -0.25,0 -0.421875,0.171875 -0.546875,0.359375 -0.15625,0.265625 -0.25,0.671875 -0.25,0.71875 0,0.078125 0.09375,0.078125 0.125,0.078125 0.09375,0 0.09375,-0.015625 0.140625,-0.203125 0.109375,-0.421875 0.25,-0.75 0.515625,-0.75 0.1875,0 0.234375,0.15625 0.234375,0.34375 0,0.125 -0.0625,0.390625 -0.125,0.578125 -0.046875,0.1875 -0.109375,0.46875 -0.140625,0.625 L 0.84375,-0.4375 C 0.828125,-0.34375 0.78125,-0.171875 0.78125,-0.15625 0.78125,0 0.90625,0.0625 1.015625,0.0625 1.125,0.0625 1.265625,0 1.3125,-0.125 1.328125,-0.171875 1.40625,-0.484375 1.453125,-0.65625 Z m 0,0"
               id="id-711abb4f-31b1-4abc-93b9-4c43c761b3d6" />
          </g>
        </g>
        <g
           style="fill:#000000;fill-opacity:1"
           id="id-790029d0-86ba-4021-8faa-019e26257b3d">
          <g
             transform="translate(170.117,136.259)"
             id="g5723">
            <path
               style="stroke:none;stroke-width:0"
               d="m 1.71875,-2.75 h 0.703125 c 0.140625,0 0.21875,0 0.21875,-0.15625 C 2.640625,-3 2.5625,-3 2.4375,-3 H 1.78125 l 0.25,-1.03125 C 2.046875,-4.0625 2.0625,-4.109375 2.0625,-4.125 c 0,-0.140625 -0.109375,-0.234375 -0.25,-0.234375 -0.171875,0 -0.265625,0.125 -0.328125,0.296875 C 1.4375,-3.875 1.53125,-4.21875 1.21875,-3 H 0.515625 c -0.125,0 -0.21875,0 -0.21875,0.15625 C 0.296875,-2.75 0.375,-2.75 0.5,-2.75 H 1.15625 L 0.75,-1.109375 C 0.703125,-0.9375 0.640625,-0.6875 0.640625,-0.59375 c 0,0.40625 0.359375,0.65625 0.75,0.65625 0.78125,0 1.21875,-0.96875 1.21875,-1.0625 0,-0.09375 -0.09375,-0.09375 -0.109375,-0.09375 -0.09375,0 -0.09375,0.015625 -0.15625,0.140625 -0.1875,0.4375 -0.546875,0.828125 -0.921875,0.828125 -0.15625,0 -0.25,-0.09375 -0.25,-0.34375 0,-0.0625 0.03125,-0.21875 0.046875,-0.28125 z m 0,0"
               id="id-1f734c07-0de2-4458-9061-27177b917ab3" />
          </g>
          <g
             transform="translate(173.127,136.259)"
             id="g5726">
            <path
               style="stroke:none;stroke-width:0"
               d="m 1.5625,-1.59375 c 0.1875,0 0.75,-0.015625 1.125,-0.140625 0.515625,-0.1875 0.609375,-0.515625 0.609375,-0.71875 0,-0.390625 -0.390625,-0.625 -0.859375,-0.625 -0.84375,0 -1.96875,0.640625 -1.96875,1.84375 0,0.703125 0.4375,1.296875 1.25,1.296875 1.1875,0 1.734375,-0.6875 1.734375,-0.78125 0,-0.046875 -0.0625,-0.125 -0.125,-0.125 -0.03125,0 -0.046875,0.015625 -0.109375,0.078125 C 2.671875,-0.125 1.859375,-0.125 1.734375,-0.125 1.3125,-0.125 1.03125,-0.40625 1.03125,-0.96875 c 0,-0.09375 0,-0.234375 0.09375,-0.625 z M 1.171875,-1.78125 C 1.46875,-2.796875 2.234375,-2.875 2.4375,-2.875 2.734375,-2.875 3,-2.71875 3,-2.453125 3,-1.78125 1.8125,-1.78125 1.515625,-1.78125 Z m 0,0"
               id="id-811bd7b5-7f1d-4c0a-a60e-253f893a07cd" />
          </g>
        </g>
      </g>
    </g>
  </g>
</svg>
