<?xml version="1.0" encoding="UTF-8" standalone="no"?>
<svg
   width="12cm"
   height="9cm"
   viewBox="0 0 120 90"
   version="1.1"
   id="svg8"
   inkscape:version="1.1 (1:1.1+202105261517+ce6663b3b7)"
   sodipodi:docname="perspectivaDFT.svg"
   xmlns:inkscape="http://www.inkscape.org/namespaces/inkscape"
   xmlns:sodipodi="http://sodipodi.sourceforge.net/DTD/sodipodi-0.dtd"
   xmlns:xlink="http://www.w3.org/1999/xlink"
   xmlns="http://www.w3.org/2000/svg"
   xmlns:svg="http://www.w3.org/2000/svg"
   xmlns:rdf="http://www.w3.org/1999/02/22-rdf-syntax-ns#"
   xmlns:cc="http://creativecommons.org/ns#"
   xmlns:dc="http://purl.org/dc/elements/1.1/">
  <defs
     id="defs2">
    <rect
       x="69.103523"
       y="115.85207"
       width="1.8052965"
       height="11.987475"
       id="rect19548" />
    <rect
       x="166.45442"
       y="134.57346"
       width="73.343628"
       height="32.318432"
       id="rect19542" />
    <rect
       x="15.491386"
       y="116.08641"
       width="70.445839"
       height="40.711624"
       id="rect19536" />
    <linearGradient
       inkscape:collect="always"
       id="linearGradient19430">
      <stop
         style="stop-color:#dc0000;stop-opacity:1;"
         offset="0"
         id="stop19426" />
      <stop
         style="stop-color:#dc0000;stop-opacity:0;"
         offset="1"
         id="stop19428" />
    </linearGradient>
    <rect
       x="161.25491"
       y="71.581619"
       width="62.393524"
       height="27.751831"
       id="rect19074" />
    <marker
       style="overflow:visible"
       id="marker18854"
       refX="0"
       refY="0"
       orient="auto"
       inkscape:stockid="Arrow1Lstart"
       inkscape:isstock="true">
      <path
         transform="matrix(0.8,0,0,0.8,10,0)"
         style="fill:#dc0000;fill-opacity:1;fill-rule:evenodd;stroke:#dc0000;stroke-width:1pt;stroke-opacity:1"
         d="M 0,0 5,-5 -12.5,0 5,5 Z"
         id="path18852" />
    </marker>
    <linearGradient
       inkscape:collect="always"
       id="linearGradient18400">
      <stop
         style="stop-color:#18741e;stop-opacity:1;"
         offset="0"
         id="stop18396" />
      <stop
         style="stop-color:#18741e;stop-opacity:0;"
         offset="1"
         id="stop18398" />
    </linearGradient>
    <linearGradient
       id="linearGradient18376"
       inkscape:swatch="solid">
      <stop
         style="stop-color:#18741e;stop-opacity:1;"
         offset="0"
         id="stop18374" />
    </linearGradient>
    <marker
       style="overflow:visible"
       id="marker14654"
       refX="0"
       refY="0"
       orient="auto"
       inkscape:stockid="Arrow1Lstart"
       inkscape:isstock="true">
      <path
         transform="matrix(0.8,0,0,0.8,10,0)"
         style="fill:#000000;fill-opacity:1;fill-rule:evenodd;stroke:#000000;stroke-width:1pt;stroke-opacity:1"
         d="M 0,0 5,-5 -12.5,0 5,5 Z"
         id="path14652" />
    </marker>
    <marker
       style="overflow:visible"
       id="marker14444"
       refX="0"
       refY="0"
       orient="auto"
       inkscape:stockid="Arrow1Lstart"
       inkscape:isstock="true"
       inkscape:collect="always">
      <path
         transform="matrix(0.8,0,0,0.8,10,0)"
         style="fill:#000000;fill-opacity:1;fill-rule:evenodd;stroke:#000000;stroke-width:1pt;stroke-opacity:1"
         d="M 0,0 5,-5 -12.5,0 5,5 Z"
         id="path14442" />
    </marker>
    <marker
       style="overflow:visible"
       id="marker14206"
       refX="0"
       refY="0"
       orient="auto"
       inkscape:stockid="Arrow1Lstart"
       inkscape:isstock="true"
       inkscape:collect="always">
      <path
         transform="matrix(0.8,0,0,0.8,10,0)"
         style="fill:#000000;fill-opacity:1;fill-rule:evenodd;stroke:#000000;stroke-width:1pt;stroke-opacity:1"
         d="M 0,0 5,-5 -12.5,0 5,5 Z"
         id="path14204" />
    </marker>
    <marker
       style="overflow:visible"
       id="marker14032"
       refX="0"
       refY="0"
       orient="auto"
       inkscape:stockid="Arrow1Lstart"
       inkscape:isstock="true"
       inkscape:collect="always">
      <path
         transform="matrix(0.8,0,0,0.8,10,0)"
         style="fill:#000000;fill-opacity:1;fill-rule:evenodd;stroke:#000000;stroke-width:1pt;stroke-opacity:1"
         d="M 0,0 5,-5 -12.5,0 5,5 Z"
         id="path14030" />
    </marker>
    <marker
       style="overflow:visible"
       id="marker13810"
       refX="0"
       refY="0"
       orient="auto"
       inkscape:stockid="Arrow1Lstart"
       inkscape:isstock="true">
      <path
         transform="matrix(0.8,0,0,0.8,10,0)"
         style="fill:#000000;fill-opacity:1;fill-rule:evenodd;stroke:#000000;stroke-width:1pt;stroke-opacity:1"
         d="M 0,0 5,-5 -12.5,0 5,5 Z"
         id="path13808" />
    </marker>
    <marker
       style="overflow:visible"
       id="marker13648"
       refX="0"
       refY="0"
       orient="auto"
       inkscape:stockid="Arrow1Lstart"
       inkscape:isstock="true"
       inkscape:collect="always">
      <path
         transform="matrix(0.8,0,0,0.8,10,0)"
         style="fill:#000000;fill-opacity:1;fill-rule:evenodd;stroke:#000000;stroke-width:1pt;stroke-opacity:1"
         d="M 0,0 5,-5 -12.5,0 5,5 Z"
         id="path13646" />
    </marker>
    <marker
       style="overflow:visible"
       id="marker13442"
       refX="0"
       refY="0"
       orient="auto"
       inkscape:stockid="Arrow1Lstart"
       inkscape:isstock="true"
       inkscape:collect="always">
      <path
         transform="matrix(0.8,0,0,0.8,10,0)"
         style="fill:#000000;fill-opacity:1;fill-rule:evenodd;stroke:#000000;stroke-width:1pt;stroke-opacity:1"
         d="M 0,0 5,-5 -12.5,0 5,5 Z"
         id="path13440" />
    </marker>
    <marker
       style="overflow:visible"
       id="marker13292"
       refX="0"
       refY="0"
       orient="auto"
       inkscape:stockid="Arrow1Lstart"
       inkscape:isstock="true"
       inkscape:collect="always">
      <path
         transform="matrix(0.8,0,0,0.8,10,0)"
         style="fill:#000000;fill-opacity:1;fill-rule:evenodd;stroke:#000000;stroke-width:1pt;stroke-opacity:1"
         d="M 0,0 5,-5 -12.5,0 5,5 Z"
         id="path13290" />
    </marker>
    <marker
       style="overflow:visible"
       id="marker13096"
       refX="0"
       refY="0"
       orient="auto"
       inkscape:stockid="Arrow1Lstart"
       inkscape:isstock="true"
       inkscape:collect="always">
      <path
         transform="matrix(0.8,0,0,0.8,10,0)"
         style="fill:#000000;fill-opacity:1;fill-rule:evenodd;stroke:#000000;stroke-width:1pt;stroke-opacity:1"
         d="M 0,0 5,-5 -12.5,0 5,5 Z"
         id="path13094" />
    </marker>
    <marker
       style="overflow:visible"
       id="marker12964"
       refX="0"
       refY="0"
       orient="auto"
       inkscape:stockid="Arrow1Lstart"
       inkscape:isstock="true"
       inkscape:collect="always">
      <path
         transform="matrix(0.8,0,0,0.8,10,0)"
         style="fill:#000000;fill-opacity:1;fill-rule:evenodd;stroke:#000000;stroke-width:1pt;stroke-opacity:1"
         d="M 0,0 5,-5 -12.5,0 5,5 Z"
         id="path12962" />
    </marker>
    <marker
       style="overflow:visible"
       id="marker12766"
       refX="0"
       refY="0"
       orient="auto"
       inkscape:stockid="Arrow1Lstart"
       inkscape:isstock="true"
       inkscape:collect="always">
      <path
         transform="matrix(0.8,0,0,0.8,10,0)"
         style="fill:#000000;fill-opacity:1;fill-rule:evenodd;stroke:#000000;stroke-width:1pt;stroke-opacity:1"
         d="M 0,0 5,-5 -12.5,0 5,5 Z"
         id="path12764" />
    </marker>
    <marker
       style="overflow:visible"
       id="marker12640"
       refX="0"
       refY="0"
       orient="auto"
       inkscape:stockid="Arrow1Lstart"
       inkscape:isstock="true"
       inkscape:collect="always">
      <path
         transform="matrix(0.8,0,0,0.8,10,0)"
         style="fill:#000000;fill-opacity:1;fill-rule:evenodd;stroke:#000000;stroke-width:1pt;stroke-opacity:1"
         d="M 0,0 5,-5 -12.5,0 5,5 Z"
         id="path12638" />
    </marker>
    <marker
       style="overflow:visible"
       id="marker11936"
       refX="0"
       refY="0"
       orient="auto"
       inkscape:stockid="Arrow1Lstart"
       inkscape:isstock="true"
       inkscape:collect="always">
      <path
         transform="matrix(0.8,0,0,0.8,10,0)"
         style="fill:#000000;fill-opacity:1;fill-rule:evenodd;stroke:#000000;stroke-width:1pt;stroke-opacity:1"
         d="M 0,0 5,-5 -12.5,0 5,5 Z"
         id="path11934" />
    </marker>
    <marker
       style="overflow:visible"
       id="marker11734"
       refX="0"
       refY="0"
       orient="auto"
       inkscape:stockid="Arrow1Lstart"
       inkscape:isstock="true">
      <path
         transform="matrix(0.8,0,0,0.8,10,0)"
         style="fill:#000000;fill-opacity:1;fill-rule:evenodd;stroke:#000000;stroke-width:1pt;stroke-opacity:1"
         d="M 0,0 5,-5 -12.5,0 5,5 Z"
         id="path11732" />
    </marker>
    <marker
       style="overflow:visible"
       id="marker10786"
       refX="0"
       refY="0"
       orient="auto"
       inkscape:stockid="Arrow1Lstart"
       inkscape:isstock="true"
       inkscape:collect="always">
      <path
         transform="matrix(0.8,0,0,0.8,10,0)"
         style="fill:#000000;fill-opacity:1;fill-rule:evenodd;stroke:#000000;stroke-width:1pt;stroke-opacity:1"
         d="M 0,0 5,-5 -12.5,0 5,5 Z"
         id="path10784" />
    </marker>
    <marker
       style="overflow:visible"
       id="marker10674"
       refX="0"
       refY="0"
       orient="auto"
       inkscape:stockid="Arrow1Lstart"
       inkscape:isstock="true"
       inkscape:collect="always">
      <path
         transform="matrix(0.8,0,0,0.8,10,0)"
         style="fill:#000000;fill-opacity:1;fill-rule:evenodd;stroke:#000000;stroke-width:1pt;stroke-opacity:1"
         d="M 0,0 5,-5 -12.5,0 5,5 Z"
         id="path10672" />
    </marker>
    <marker
       style="overflow:visible"
       id="marker10556"
       refX="0"
       refY="0"
       orient="auto"
       inkscape:stockid="Arrow1Lstart"
       inkscape:isstock="true">
      <path
         transform="matrix(0.8,0,0,0.8,10,0)"
         style="fill:#000000;fill-opacity:1;fill-rule:evenodd;stroke:#000000;stroke-width:1pt;stroke-opacity:1"
         d="M 0,0 5,-5 -12.5,0 5,5 Z"
         id="path10554" />
    </marker>
    <marker
       style="overflow:visible"
       id="marker10372"
       refX="0"
       refY="0"
       orient="auto"
       inkscape:stockid="Arrow1Lstart"
       inkscape:isstock="true"
       inkscape:collect="always">
      <path
         transform="matrix(0.8,0,0,0.8,10,0)"
         style="fill:#0000f1;fill-opacity:1;fill-rule:evenodd;stroke:#0000f1;stroke-width:1pt;stroke-opacity:1"
         d="M 0,0 5,-5 -12.5,0 5,5 Z"
         id="path10370" />
    </marker>
    <marker
       style="overflow:visible"
       id="marker10256"
       refX="0"
       refY="0"
       orient="auto"
       inkscape:stockid="Arrow1Lstart"
       inkscape:isstock="true">
      <path
         transform="matrix(0.8,0,0,0.8,10,0)"
         style="fill:#0000f1;fill-opacity:1;fill-rule:evenodd;stroke:#0000f1;stroke-width:1pt;stroke-opacity:1"
         d="M 0,0 5,-5 -12.5,0 5,5 Z"
         id="path10254" />
    </marker>
    <marker
       style="overflow:visible"
       id="Arrow1Lstart"
       refX="0"
       refY="0"
       orient="auto"
       inkscape:stockid="Arrow1Lstart"
       inkscape:isstock="true"
       inkscape:collect="always">
      <path
         transform="matrix(0.8,0,0,0.8,10,0)"
         style="fill:#0000f1;fill-opacity:1;fill-rule:evenodd;stroke:#0000f1;stroke-width:1pt;stroke-opacity:1"
         d="M 0,0 5,-5 -12.5,0 5,5 Z"
         id="path8510" />
    </marker>
    <marker
       style="overflow:visible"
       id="Arrow2Lend"
       refX="0"
       refY="0"
       orient="auto"
       inkscape:stockid="Arrow2Lend"
       inkscape:isstock="true">
      <path
         transform="matrix(-1.1,0,0,-1.1,-1.1,0)"
         d="M 8.7185878,4.0337352 -2.2072895,0.01601326 8.7185884,-4.0017078 c -1.7454984,2.3720609 -1.7354408,5.6174519 -6e-7,8.035443 z"
         style="fill:#000000;fill-opacity:1;fill-rule:evenodd;stroke:#000000;stroke-width:0.625;stroke-linejoin:round;stroke-opacity:1"
         id="path8531" />
    </marker>
    <marker
       style="overflow:visible"
       id="Arrow2Mstart"
       refX="0"
       refY="0"
       orient="auto"
       inkscape:stockid="Arrow2Mstart"
       inkscape:isstock="true">
      <path
         transform="scale(0.6)"
         d="M 8.7185878,4.0337352 -2.2072895,0.01601326 8.7185884,-4.0017078 c -1.7454984,2.3720609 -1.7354408,5.6174519 -6e-7,8.035443 z"
         style="fill:#000000;fill-opacity:1;fill-rule:evenodd;stroke:#000000;stroke-width:0.625;stroke-linejoin:round;stroke-opacity:1"
         id="path8534" />
    </marker>
    <marker
       style="overflow:visible"
       id="marker9616"
       refX="0"
       refY="0"
       orient="auto"
       inkscape:stockid="Arrow1Lend"
       inkscape:isstock="true">
      <path
         transform="matrix(-0.8,0,0,-0.8,-10,0)"
         style="fill:#000000;fill-opacity:1;fill-rule:evenodd;stroke:#000000;stroke-width:1pt;stroke-opacity:1"
         d="M 0,0 5,-5 -12.5,0 5,5 Z"
         id="path9614" />
    </marker>
    <marker
       style="overflow:visible"
       id="marker9236"
       refX="0"
       refY="0"
       orient="auto"
       inkscape:stockid="Arrow1Lend"
       inkscape:isstock="true">
      <path
         transform="matrix(-0.8,0,0,-0.8,-10,0)"
         style="fill:#000000;fill-opacity:1;fill-rule:evenodd;stroke:#000000;stroke-width:1pt;stroke-opacity:1"
         d="M 0,0 5,-5 -12.5,0 5,5 Z"
         id="path9234" />
    </marker>
    <marker
       style="overflow:visible"
       id="marker9030"
       refX="0"
       refY="0"
       orient="auto"
       inkscape:stockid="Arrow1Lstart"
       inkscape:isstock="true"
       inkscape:collect="always">
      <path
         transform="matrix(0.8,0,0,0.8,10,0)"
         style="fill:#0000f1;fill-opacity:1;fill-rule:evenodd;stroke:#0000f1;stroke-width:1pt;stroke-opacity:1"
         d="M 0,0 5,-5 -12.5,0 5,5 Z"
         id="path9028" />
    </marker>
    <marker
       style="overflow:visible"
       id="marker8978"
       refX="0"
       refY="0"
       orient="auto"
       inkscape:stockid="Arrow1Lstart"
       inkscape:isstock="true">
      <path
         transform="matrix(0.8,0,0,0.8,10,0)"
         style="fill:#000000;fill-opacity:1;fill-rule:evenodd;stroke:#000000;stroke-width:1pt;stroke-opacity:1"
         d="M 0,0 5,-5 -12.5,0 5,5 Z"
         id="path8976" />
    </marker>
    <marker
       style="overflow:visible"
       id="marker8914"
       refX="0"
       refY="0"
       orient="auto"
       inkscape:stockid="Arrow1Lstart"
       inkscape:isstock="true">
      <path
         transform="matrix(0.8,0,0,0.8,10,0)"
         style="fill:#000000;fill-opacity:1;fill-rule:evenodd;stroke:#000000;stroke-width:1pt;stroke-opacity:1"
         d="M 0,0 5,-5 -12.5,0 5,5 Z"
         id="path8912" />
    </marker>
    <rect
       x="26.772514"
       y="74.234703"
       width="8.0937033"
       height="12.292174"
       id="rect8361" />
    <rect
       x="57.943813"
       y="80.101273"
       width="21.366959"
       height="13.193918"
       id="rect883" />
    <rect
       x="57.943813"
       y="80.101273"
       width="21.366959"
       height="13.193918"
       id="rect883-6" />
    <rect
       x="57.943813"
       y="80.101273"
       width="21.366959"
       height="13.193918"
       id="rect896" />
    <rect
       x="26.772514"
       y="74.234703"
       width="8.0937033"
       height="12.292174"
       id="rect8378" />
    <rect
       x="26.772514"
       y="74.234703"
       width="8.0937033"
       height="12.292174"
       id="rect8388" />
    <rect
       x="26.772514"
       y="74.234703"
       width="8.0937033"
       height="12.292174"
       id="rect8398" />
    <rect
       x="26.772514"
       y="74.234703"
       width="8.0937033"
       height="12.292174"
       id="rect8408" />
    <marker
       style="overflow:visible"
       id="Arrow1Lstart-3"
       refX="0"
       refY="0"
       orient="auto"
       inkscape:stockid="Arrow1Lstart"
       inkscape:isstock="true">
      <path
         transform="matrix(0.8,0,0,0.8,10,0)"
         style="fill:#0000f1;fill-opacity:1;fill-rule:evenodd;stroke:#0000f1;stroke-width:1pt;stroke-opacity:1"
         d="M 0,0 5,-5 -12.5,0 5,5 Z"
         id="path8510-5" />
    </marker>
    <radialGradient
       inkscape:collect="always"
       xlink:href="#linearGradient18400"
       id="radialGradient18402"
       cx="178.55676"
       cy="88.546959"
       fx="178.55676"
       fy="88.546959"
       r="50.328003"
       gradientTransform="matrix(1,0,0,1.2209579,0,-19.565149)"
       gradientUnits="userSpaceOnUse" />
    <filter
       inkscape:collect="always"
       style="color-interpolation-filters:sRGB"
       id="filter19384"
       x="-0.11302673"
       width="1.2260319"
       y="-0.081124"
       height="1.1622252">
      <feGaussianBlur
         inkscape:collect="always"
         stdDeviation="2.6048391"
         id="feGaussianBlur19386" />
    </filter>
    <radialGradient
       inkscape:collect="always"
       xlink:href="#linearGradient19430"
       id="radialGradient19432"
       cx="195.38161"
       cy="89.01902"
       fx="195.38161"
       fy="89.01902"
       r="34.49371"
       gradientTransform="matrix(1,0,0,1.3223885,0,-28.698708)"
       gradientUnits="userSpaceOnUse" />
  </defs>
  <sodipodi:namedview
     id="base"
     pagecolor="#ffffff"
     bordercolor="#666666"
     borderopacity="1.0"
     inkscape:pageopacity="0.0"
     inkscape:pageshadow="2"
     inkscape:zoom="0.70737049"
     inkscape:cx="535.08028"
     inkscape:cy="362.61055"
     inkscape:document-units="mm"
     inkscape:current-layer="layer1"
     inkscape:document-rotation="0"
     showgrid="false"
     inkscape:window-width="1528"
     inkscape:window-height="836"
     inkscape:window-x="72"
     inkscape:window-y="27"
     inkscape:window-maximized="1"
     units="cm"
     inkscape:snap-grids="true"
     inkscape:snap-to-guides="true"
     inkscape:pagecheckerboard="0" />
  <metadata
     id="metadata5">
    <rdf:RDF>
      <cc:Work
         rdf:about="">
        <dc:format>image/svg+xml</dc:format>
        <dc:type
           rdf:resource="http://purl.org/dc/dcmitype/StillImage" />
      </cc:Work>
    </rdf:RDF>
  </metadata>
  <g
     inkscape:label="Capa 1"
     inkscape:groupmode="layer"
     id="layer1">
    <g
       id="g282"
       transform="matrix(0.49296077,0,0,0.73048981,-3.5968177,-30.289734)">
      <ellipse
         style="fill:#32ff00;fill-opacity:0;stroke-width:0.264583"
         id="path10"
         cx="108.81975"
         cy="104.51149"
         rx="20.390879"
         ry="11.661518" />
      <ellipse
         style="fill:#32ff00;fill-opacity:0;stroke-width:0.264583"
         id="path835"
         cx="19.368279"
         cy="58.629375"
         rx="12.309191"
         ry="13.255471" />
      <path
         id="path837"
         style="fill:#32ff00;fill-opacity:0;stroke-width:0.999999"
         transform="scale(0.26458333)"
         d="m 259.31055,222.01758 a 102.84202,98.37669 0 0 0 -91.40821,53.29687 c 0.41424,0.97803 0.76418,2.07586 1.0293,3.30274 0.75712,3.5037 0.84553,4.28553 1.27734,5.73242 0.0304,0.008 0.0614,0.015 0.0918,0.0234 2.12799,1.50067 3.59413,3.49709 4.55274,5.78125 1.37542,0.28289 3.40559,0.77553 3.55078,0.8125 0.5177,-0.25636 5.4936,2.72777 3.66601,1.68359 0.77548,0.24521 1.71625,0.54364 2.00391,0.63867 -0.0853,-0.0251 -0.33584,-0.11302 -0.25586,-0.0742 3.75665,1.81992 3.82779,1.90234 6.54883,4.47852 2.46457,2.08787 2.65306,3.11303 4.24804,6.56641 0.0429,0.0201 0.0883,0.0497 0.13868,0.0957 1.64834,1.50432 0.0212,4.46381 0,6.69531 -0.14098,14.88046 -14.07628,-21.10056 -13.6836,-6.22461 0.0387,1.46542 0.19595,2.95729 0.31446,4.17774 1.1317,2.08887 1.03796,1.98001 0.0918,0.97265 0.10067,1.24951 0.0451,1.6961 -0.52734,0.33008 -0.19409,-0.4631 -0.48293,-0.9045 -0.56445,-1.39844 -0.18666,-0.17098 -0.36608,-0.34293 -0.57032,-0.50976 -0.47429,-0.47562 -0.83051,-0.80878 -0.96289,-0.98828 -0.42509,-0.13385 -0.84819,-0.27857 -1.24414,-0.45704 -0.10475,-0.0472 0.0516,-0.0158 0.25,0.0313 -0.40454,-0.10076 -0.80852,-0.20135 -1.21289,-0.30274 -0.15918,-0.0758 -2.58851,-1.00825 -2.14062,-1.19726 -1.42623,-0.44437 -2.93325,-0.55444 -4.38672,-0.89063 -2.14259,-0.65761 -2.62466,-1.01791 -4.71289,-2.55469 -0.0642,-0.0472 -0.38836,-0.44003 -0.5293,-0.61328 -1.82145,-0.89622 -0.70217,0.17706 -3.19922,-3.3789 -0.12391,-0.38279 -0.24718,-0.76565 -0.37109,-1.14844 -0.58011,-0.32601 -1.09337,-0.70424 -1.56641,-1.11328 a 102.84202,98.37669 0 0 0 -3.26953,24.60937 102.84202,98.37669 0 0 0 0.69922,11.45117 c 0.84354,-0.0199 1.68708,-0.0372 2.53125,-0.0391 2.06079,-3.27266 4.20969,-7.25709 5.9707,-7.23633 0.89717,0.0106 1.69425,1.06159 2.32617,3.7793 0.20671,0.88884 0.31241,1.21224 0.3125,2.32031 2e-5,0.20493 -0.0815,0.7749 -0.17382,1.35156 0.009,4.6e-4 0.0182,0.002 0.0273,0.002 0.36001,0.0181 -1.03211,8.10765 -0.53516,8.04687 9.62215,-1.17666 -0.11625,5.00163 -7.77343,5.35352 A 102.84202,98.37669 0 0 0 259.31052,418.7715 102.84202,98.37669 0 0 0 362.15231,320.39455 102.84202,98.37669 0 0 0 259.31052,222.0176 Z m -94.09766,60.8457 c -0.18566,-0.0136 -0.19719,0.0198 0.0742,0.11524 1.20113,0.42207 2.43911,0.7297 3.67383,1.04492 -0.10592,-0.078 -0.20335,-0.16669 -0.31836,-0.23242 -0.74946,-0.42833 -2.8727,-0.88691 -3.42969,-0.92774 z m 5.54492,3.17188 c 0.10475,0.30568 0.16211,0.49491 0.29688,0.8789 0.0861,0.24521 -0.0423,-0.54822 -0.20117,-0.7539 -0.0316,-0.0409 -0.0643,-0.0836 -0.0957,-0.125 z m -8.76172,11.23046 c 0.1487,0.23061 0.33244,0.35677 0.60157,0.21876 -0.20483,-0.0596 -0.40561,-0.13049 -0.60157,-0.21876 z m 2.89258,4.16602 c 0.16994,0.17862 0.33201,0.36442 0.49805,0.54688 0.47265,0.37197 2.17744,1.00721 1.66797,0.6875 -1.03383,-0.64876 -1.67942,-0.99433 -2.16602,-1.23438 z m 15.17383,2.30664 c -0.0116,-0.14927 -0.0401,0.51151 -0.17578,2.49414 0.14022,0.26079 0.16042,0.29854 0.28711,0.5332 -0.10196,-1.5626 -0.0978,-2.85341 -0.11133,-3.02734 z m 26.66406,13.56836 c 0.82204,0.0736 0.36116,1.77645 -0.70898,4.04688 2.00635,0.52056 4.32213,0.97952 3.81836,2.12695 -0.20241,0.46101 -0.42334,0.91403 -0.64649,1.36523 0.30382,0.36005 0.57238,0.74568 0.72266,1.2168 -1.99465,2.35522 -3.8021,4.88966 -5.82813,7.21484 0.0241,3.9208 -0.73206,6.47365 -5.01171,2.53321 -0.67311,-0.61976 -1.31123,-1.26559 -1.86524,-1.97657 -1.72038,1.33157 -2.81511,0.94443 -2.2793,-2.85156 0.35227,-2.49564 1.14577,-1.79815 2.03907,-0.32812 2.2067,-3.30545 4.11058,-6.87097 6.94531,-9.63672 0.1353,-0.13201 0.29424,-0.17379 0.46289,-0.17774 -1.02443,-0.42128 -1.49239,-0.97032 -0.42578,-1.88086 1.41474,-1.20773 2.30315,-1.69477 2.77734,-1.65234 z m -2.35156,3.5332 c 0.27356,0.1125 0.6045,0.2124 0.94141,0.31055 -0.33286,-0.18019 -0.65528,-0.31723 -0.94141,-0.31055 z m 0.94141,0.31055 c 0.21257,0.11508 0.42385,0.22694 0.63476,0.3418 0.0223,-0.0467 0.0446,-0.0925 0.0664,-0.13867 -0.24886,-0.0646 -0.468,-0.1352 -0.70117,-0.20313 z m -8.34961,9.50391 c -0.29023,0.43473 -0.58515,0.86576 -0.88868,1.28906 0.28427,0.70043 0.6809,1.31568 1.12891,1.89062 0.32031,-0.24791 0.66195,-0.55285 1.01953,-0.91015 -0.42273,-0.79395 -0.84959,-1.59455 -1.25976,-2.26953 z m 7.11718,2.62304 c -9.1e-4,-0.14891 -0.005,-0.30439 -0.008,-0.45703 -0.78277,1.01524 -1.58923,2.00989 -2.40625,2.98828 0.85447,-0.79589 1.64737,-1.65134 2.41406,-2.53125 z m -0.008,-0.45703 c 1.93681,-2.51201 3.71644,-5.15017 5.11328,-7.97461 -0.21227,-0.25156 -0.43659,-0.49375 -0.67383,-0.73047 -0.1995,-0.19909 -0.37495,-0.35447 -0.55859,-0.52343 -0.0318,1.7872 -1.96092,4.46201 -3.96484,7.00586 0.0427,0.7652 0.0696,1.50462 0.084,2.22265 z m 1.27344,-10.82422 c -0.10416,-0.0124 -0.20127,-0.0134 -0.29102,0.002 -0.92765,0.15835 -1.20992,1.54903 -1.25195,3.41211 0.70675,-1.16191 1.34422,-2.29367 1.87305,-3.34571 -0.11472,-0.0323 -0.22592,-0.056 -0.33008,-0.0684 z m -47.93555,11.69336 a 102.84202,98.37669 0 0 0 0.15821,1.07617 c 0.25157,-0.28238 0.50647,-0.59293 0.76562,-0.94531 -0.30795,-0.0435 -0.61587,-0.0874 -0.92383,-0.13086 z" />
      <g
         id="g8351">
        <path
           id="path849"
           style="fill:#803300;fill-opacity:1;stroke-width:0.999999"
           transform="scale(0.26458333)"
           d="m 256.92578,284.9668 a 48.762021,46.954626 0 0 0 -47.60937,37.44336 c 0.47617,0.28265 0.71611,0.62256 0.51953,1.07031 -0.20241,0.46101 -0.42334,0.91403 -0.64649,1.36523 0.30382,0.36005 0.57238,0.74568 0.72266,1.2168 -0.48165,0.56872 -0.95048,1.14827 -1.41602,1.73242 a 48.762021,46.954626 0 0 0 -0.1914,4.12696 48.762021,46.954626 0 0 0 48.76367,46.95312 48.762021,46.954626 0 0 0 48.76172,-46.95312 48.762021,46.954626 0 0 0 -48.76172,-46.95508 48.762021,46.954626 0 0 0 -0.14258,0 z m -47.73633,39.8789 c -0.088,-0.10426 -0.18711,-0.20141 -0.27929,-0.30273 a 48.762021,46.954626 0 0 0 -0.17383,1.15039 c 0.14968,-0.28335 0.31112,-0.56052 0.45312,-0.84766 z" />
        <text
           xml:space="preserve"
           id="text881"
           style="font-style:normal;font-weight:normal;font-size:10.5833px;line-height:1.25;font-family:sans-serif;white-space:pre;shape-inside:url(#rect883);fill:#000000;fill-opacity:1;stroke:none"
           transform="translate(1.8039253,2.306874)"><tspan
             x="57.943359"
             y="89.465302"
             id="tspan857">Ión</tspan></text>
      </g>
      <g
         id="g8368"
         transform="translate(5.6416754,-9.2134528)">
        <path
           id="path853"
           style="fill:#008000;fill-opacity:1;stroke-width:1.21189"
           transform="matrix(0.26458333,0,0,0.26458333,-5.6416754,9.2134528)"
           d="m 136.75195,232.74609 a 19.285091,16.340373 0 0 0 -19.2832,16.33985 19.285091,16.340373 0 0 0 19.2832,16.33984 19.285091,16.340373 0 0 0 6.44922,-0.9414 c 0.15207,-0.82517 1.10615,-1.02402 2.46875,-0.91016 a 19.285091,16.340373 0 0 0 10.36719,-14.48828 19.285091,16.340373 0 0 0 -19.28516,-16.33985 z" />
        <path
           id="text8359"
           style="font-style:normal;font-weight:normal;font-size:10.5833px;line-height:1.25;font-family:sans-serif;white-space:pre;shape-inside:url(#rect8361);fill:#000000;fill-opacity:1;stroke:none;stroke-width:2.91595"
           inkscape:transform-center-x="-0.33580086"
           inkscape:transform-center-y="-23.915234"
           transform="matrix(0.26458333,0,0,0.26458333,-5.6416754,9.2134528)"
           d="m 137.04883,239.64453 c -2.10037,0 -3.77179,0.98191 -5.01367,2.94336 -1.23355,1.94935 -1.84961,4.58834 -1.84961,7.91797 0,3.22066 0.64899,5.77525 1.94922,7.66406 1.30856,1.88881 3.08072,2.83399 5.31445,2.83399 0.89182,0 1.7699,-0.13402 2.63672,-0.40039 0.86682,-0.26637 1.71391,-0.65359 2.53906,-1.16211 v -3.16016 c -0.81681,0.6296 -1.64308,1.10121 -2.47656,1.41602 -0.82515,0.3148 -1.67901,0.47265 -2.5625,0.47265 -1.52527,0 -2.71574,-0.60016 -3.57422,-1.79883 -0.85015,-1.21077 -1.32576,-2.96515 -1.42578,-5.26562 h 10.57617 v -1.63477 c 0,-3.02693 -0.5502,-5.4182 -1.65039,-7.17382 -1.09186,-1.76774 -2.57923,-2.65235 -4.46289,-2.65235 z m 0.0254,2.83399 c 1.13353,0 2.04115,0.54506 2.72461,1.63476 0.69179,1.0897 1.04583,2.54868 1.0625,4.37695 l -8.20117,0.0176 c 0.11668,-1.91302 0.55937,-3.39584 1.32617,-4.44922 0.77513,-1.05337 1.80433,-1.58007 3.08789,-1.58007 z" />
      </g>
      <g
         id="g8376"
         transform="translate(-11.71596,28.557301)">
        <ellipse
           style="fill:#008000;fill-opacity:1;stroke-width:0.320645"
           id="ellipse8370"
           cx="30.540869"
           cy="75.117447"
           rx="5.1025138"
           ry="4.3233905" />
        <text
           xml:space="preserve"
           id="text8374"
           style="font-style:normal;font-weight:normal;font-size:10.5833px;line-height:1.25;font-family:sans-serif;white-space:pre;shape-inside:url(#rect8378);fill:#000000;fill-opacity:1;stroke:none"
           transform="matrix(0.6401146,0,0,0.92987781,11.291289,0.39512585)"
           inkscape:transform-center-x="-0.33580086"
           inkscape:transform-center-y="-23.915234"><tspan
             x="26.773438"
             y="83.598115"
             id="tspan859">e</tspan></text>
      </g>
      <g
         id="g8386"
         transform="translate(5.0652816,12.620728)">
        <path
           id="ellipse8380"
           style="fill:#008000;fill-opacity:1;stroke-width:1.21189"
           transform="matrix(0.26458333,0,0,0.26458333,-5.0652816,-12.620728)"
           d="m 134.57422,315.26758 a 19.285091,16.340373 0 0 0 -19.28516,16.3418 19.285091,16.340373 0 0 0 19.28516,16.33984 A 19.285091,16.340373 0 0 0 152.7793,337 c 0.067,-0.90093 0.13499,-1.80179 0.19922,-2.70312 0.029,-0.40685 0.0554,-0.81371 0.082,-1.22071 -0.0404,-0.006 -0.0807,-0.0119 -0.1211,-0.0176 0.0181,-0.4852 0.0237,-0.54888 0.0312,-0.95312 0.001,-0.0742 -6.8e-4,0.14844 0,0.22265 0.38637,-3.08112 0.16429,-2.14486 0.46094,-3.17968 7.6e-4,-0.005 0.001,-0.0104 0.002,-0.0156 0.0132,-0.0892 0.10018,-0.34662 0.0762,-0.25976 -0.0414,0.14975 -0.0487,0.17259 -0.0781,0.27539 -0.064,0.43488 -0.14421,0.86919 -0.1543,1.30859 -0.0172,0.76283 0.0421,1.0494 0.14844,1.54102 0.14244,-0.009 0.28526,-0.0112 0.42774,-0.0195 a 19.285091,16.340373 0 0 0 0.006,-0.36914 19.285091,16.340373 0 0 0 -19.28516,-16.3418 z m 18.57226,16.50195 c 0.005,-0.0801 -0.0836,0.2035 -0.0215,0.24219 0.002,-1.3e-4 0.004,1.3e-4 0.006,0 0.005,-0.0807 0.0102,-0.16146 0.0156,-0.24219 z m 0.5586,1.39649 c 0.0153,0.056 0.0333,0.0884 0.0488,0.14257 a 19.285091,16.340373 0 0 0 0.0156,-0.13281 c -0.0215,-0.003 -0.0429,-0.007 -0.0644,-0.01 z" />
        <text
           xml:space="preserve"
           id="text8384"
           style="font-style:normal;font-weight:normal;font-size:10.5833px;line-height:1.25;font-family:sans-serif;white-space:pre;shape-inside:url(#rect8388);fill:#000000;fill-opacity:1;stroke:none"
           transform="matrix(0.6401146,0,0,0.92987781,11.291289,0.39512585)"
           inkscape:transform-center-x="-0.33580086"
           inkscape:transform-center-y="-23.915234"><tspan
             x="26.773438"
             y="83.598115"
             id="tspan861">e</tspan></text>
      </g>
      <g
         id="g8396"
         transform="translate(-12.710948,-2.0221241)">
        <ellipse
           style="fill:#008000;fill-opacity:1;stroke-width:0.320645"
           id="ellipse8390"
           cx="30.540869"
           cy="75.117447"
           rx="5.1025138"
           ry="4.3233905" />
        <text
           xml:space="preserve"
           id="text8394"
           style="font-style:normal;font-weight:normal;font-size:10.5833px;line-height:1.25;font-family:sans-serif;white-space:pre;shape-inside:url(#rect8398);fill:#000000;fill-opacity:1;stroke:none"
           transform="matrix(0.6401146,0,0,0.92987781,11.291289,0.39512585)"
           inkscape:transform-center-x="-0.33580086"
           inkscape:transform-center-y="-23.915234"><tspan
             x="26.773438"
             y="83.598115"
             id="tspan863">e</tspan></text>
      </g>
      <g
         id="g8406"
         transform="translate(6.7901906,33.252746)">
        <ellipse
           style="fill:#008000;fill-opacity:1;stroke-width:0.320645"
           id="ellipse8400"
           cx="30.540869"
           cy="75.117447"
           rx="5.1025138"
           ry="4.3233905" />
        <text
           xml:space="preserve"
           id="text8404"
           style="font-style:normal;font-weight:normal;font-size:10.5833px;line-height:1.25;font-family:sans-serif;white-space:pre;shape-inside:url(#rect8408);fill:#000000;fill-opacity:1;stroke:none"
           transform="matrix(0.6401146,0,0,0.92987781,11.291289,0.39512585)"
           inkscape:transform-center-x="-0.33580086"
           inkscape:transform-center-y="-23.915234"><tspan
             x="26.773438"
             y="83.598115"
             id="tspan865">e</tspan></text>
      </g>
      <path
         id="path8414"
         style="fill:#000000;stroke:none;stroke-width:0.999999"
         transform="scale(0.26458333)"
         d="m 149.34375,264.24805 a 1.5,1.5 0 0 0 -0.10937,0.55859 1.5,1.5 0 0 0 0.0234,0.25781 c 0.25312,-0.22508 0.50752,-0.45113 0.74024,-0.66797 -0.22622,-0.0552 -0.43302,-0.0967 -0.6543,-0.14843 z" />
      <path
         id="path8420"
         style="fill:#000000;stroke:none;stroke-width:0.999999"
         transform="scale(0.26458333)"
         d="m 201.00781,324.47266 a 1.5,1.5 0 0 0 -0.8457,1.22265 c 0.2758,-0.4126 0.55795,-0.82032 0.8457,-1.22265 z" />
      <path
         id="path8422"
         style="fill:#000000;stroke:none;stroke-width:0.999999"
         transform="scale(0.26458333)"
         d="m 157.36914,331.66602 a 1.5,1.5 0 0 0 -0.72656,0.1875 c 0.47048,-0.0135 0.94137,-0.0141 1.41211,-0.0215 a 1.5,1.5 0 0 0 -0.68555,-0.16601 z m -1.4668,1.81054 a 1.5,1.5 0 0 0 1.4668,1.18946 1.5,1.5 0 0 0 0.33008,-0.0371 c 0.21074,-0.24618 0.42279,-0.51505 0.63867,-0.8086 -0.8118,-0.11467 -1.62369,-0.2291 -2.43555,-0.34375 z" />
      <path
         id="path8424"
         style="fill:#000000;stroke:none;stroke-width:0.999999"
         transform="scale(0.26458333)"
         d="m 201.00781,324.47266 a 1.5,1.5 0 0 0 -0.8457,1.22265 c 0.2758,-0.4126 0.55795,-0.82032 0.8457,-1.22265 z" />
      <path
         id="path8426"
         style="fill:#000000;stroke:none;stroke-width:0.999999"
         transform="scale(0.26458333)"
         d="m 201.00781,324.47266 a 1.5,1.5 0 0 0 -0.8457,1.22265 c 0.2758,-0.4126 0.55795,-0.82032 0.8457,-1.22265 z" />
      <circle
         id="path9134"
         style="fill:#000000;stroke:none;stroke-width:0.264583"
         cx="53.972885"
         cy="87.470627"
         r="0.39687499" />
      <path
         style="fill:none;stroke:#0000f1;stroke-width:0.365;stroke-linecap:butt;stroke-linejoin:miter;stroke-miterlimit:4;stroke-dasharray:none;stroke-opacity:1;marker-start:url(#Arrow1Lstart)"
         d="M 39.49112,70.131635 53.972883,87.47063 v 0 0 0"
         id="path9846" />
      <path
         style="fill:none;stroke:#0000f1;stroke-width:0.375406;stroke-linecap:butt;stroke-linejoin:miter;stroke-miterlimit:4;stroke-dasharray:none;stroke-opacity:1;marker-start:url(#Arrow1Lstart-3)"
         d="m 40.486529,88.966463 13.282127,-1.058719 v 0 0 0"
         id="path9846-6" />
      <path
         style="fill:none;stroke:#0000f1;stroke-width:0.365;stroke-linecap:butt;stroke-linejoin:miter;stroke-miterlimit:4;stroke-dasharray:none;stroke-opacity:1;marker-start:url(#marker9030)"
         d="M 40.391664,104.51777 53.358449,88.849355 v 0 0 0"
         id="path10126" />
      <path
         style="fill:none;stroke:#0000f1;stroke-width:0.486728;stroke-linecap:butt;stroke-linejoin:miter;stroke-miterlimit:4;stroke-dasharray:none;stroke-opacity:1;marker-start:url(#marker10256)"
         d="M 25.548272,101.93498 53.452811,88.987982 v 0 0 0"
         id="path10252" />
      <path
         style="fill:none;stroke:#0000f1;stroke-width:0.474296;stroke-linecap:butt;stroke-linejoin:miter;stroke-miterlimit:4;stroke-dasharray:none;stroke-opacity:1;marker-start:url(#marker10372)"
         d="M 22.649454,73.844144 54.08187,87.333202 v 0 0 0"
         id="path10368" />
      <path
         style="fill:none;stroke:#000000;stroke-width:0.265;stroke-linecap:butt;stroke-linejoin:miter;stroke-miterlimit:4;stroke-dasharray:none;stroke-opacity:1;marker-start:url(#marker10674)"
         d="m 37.888642,69.978158 -2.282547,13.436388 v 0 0 0"
         id="path11608" />
      <path
         style="fill:none;stroke:#000000;stroke-width:0.265;stroke-linecap:butt;stroke-linejoin:miter;stroke-miterlimit:4;stroke-dasharray:none;stroke-opacity:1;marker-start:url(#marker11734)"
         d="m 35.606138,83.414557 2.282547,-13.436388 v 0 0 0"
         id="path11730" />
      <path
         style="fill:none;stroke:#000000;stroke-width:0.264583px;stroke-linecap:butt;stroke-linejoin:miter;stroke-opacity:1;marker-start:url(#marker10786)"
         d="m 15.712905,78.745552 2.229504,20.045966 -0.519708,0.05781"
         id="path11906" />
      <path
         style="fill:none;stroke:#000000;stroke-width:0.264583px;stroke-linecap:butt;stroke-linejoin:miter;stroke-opacity:1;marker-start:url(#marker11936)"
         d="m 17.942409,98.791518 -2.138986,-20.055826 0.519964,-0.05546"
         id="path11932" />
      <path
         style="fill:none;stroke:#000000;stroke-width:0.264583px;stroke-linecap:butt;stroke-linejoin:miter;stroke-opacity:1;marker-start:url(#marker12640)"
         d="m 30.748924,65.528774 -6.626304,3.582025 v 0 0 0"
         id="path12108" />
      <path
         style="fill:none;stroke:#000000;stroke-width:0.243456px;stroke-linecap:butt;stroke-linejoin:miter;stroke-opacity:1;marker-start:url(#marker12766)"
         d="m 21.293301,70.761502 5.985591,-3.402725 v 0 0 0"
         id="path12762" />
      <path
         style="fill:none;stroke:#000000;stroke-width:0.264583px;stroke-linecap:butt;stroke-linejoin:miter;stroke-opacity:1;marker-start:url(#marker12964)"
         d="M 33.985509,70.37666 21.681924,99.391106 v 0 0 0"
         id="path12954" />
      <path
         style="fill:none;stroke:#000000;stroke-width:0.264583px;stroke-linecap:butt;stroke-linejoin:miter;stroke-opacity:1;marker-start:url(#marker13096)"
         d="M 21.733768,98.958334 34.091929,69.967092 v 0 0 0"
         id="path13092" />
      <path
         style="fill:none;stroke:#000000;stroke-width:0.264583px;stroke-linecap:butt;stroke-linejoin:miter;stroke-opacity:1;marker-start:url(#marker13292)"
         d="M 30.122357,86.335824 20.42087,77.322917 v 0 0 0"
         id="path13282" />
      <path
         style="fill:none;stroke:#000000;stroke-width:0.264583px;stroke-linecap:butt;stroke-linejoin:miter;stroke-opacity:1;marker-start:url(#marker13442)"
         d="m 20.698701,77.584695 9.718861,8.994169 v 0 0 0"
         id="path13438" />
      <path
         style="fill:none;stroke:#000000;stroke-width:0.264583px;stroke-linecap:butt;stroke-linejoin:miter;stroke-opacity:1;marker-start:url(#marker13648)"
         d="m 24.541034,99.420771 7.179224,-7.764277 v 0 0 0"
         id="path13638" />
      <path
         style="fill:none;stroke:#000000;stroke-width:0.264583px;stroke-linecap:butt;stroke-linejoin:miter;stroke-opacity:1;marker-start:url(#marker13810)"
         d="m 31.720258,91.656494 -6.973629,7.94945 v 0 0 0"
         id="path13806" />
      <path
         style="fill:none;stroke:#000000;stroke-width:0.264583px;stroke-linecap:butt;stroke-linejoin:miter;stroke-opacity:1;marker-start:url(#marker14032)"
         d="M 37.124454,103.37649 35.848758,92.635675 v 0 0 0"
         id="path14022" />
      <path
         style="fill:none;stroke:#000000;stroke-width:0.264583px;stroke-linecap:butt;stroke-linejoin:miter;stroke-opacity:1;marker-start:url(#marker14206)"
         d="m 35.848758,92.635675 1.402944,10.724935 v 0 0 0"
         id="path14202" />
      <path
         style="fill:none;stroke:#000000;stroke-width:0.292881px;stroke-linecap:butt;stroke-linejoin:miter;stroke-opacity:1;marker-start:url(#marker14444)"
         d="m 31.742515,109.01655 -9.245519,-1.51694 v 0 0 0"
         id="path14434" />
      <path
         style="fill:none;stroke:#000000;stroke-width:0.292881px;stroke-linecap:butt;stroke-linejoin:miter;stroke-opacity:1;marker-start:url(#marker14654)"
         d="m 20.025479,107.34114 9.293835,1.18548 v 0 0 0"
         id="path14650" />
      <path
         style="fill:none;stroke:#dc0000;stroke-width:0.765;stroke-linecap:butt;stroke-linejoin:miter;stroke-miterlimit:4;stroke-dasharray:none;stroke-opacity:1;marker-start:url(#marker18854)"
         d="M 148.43169,89.280366 92.055699,89.51677 v 0 0"
         id="path18844" />
      <g
         id="g19442">
        <g
           id="g8357"
           transform="translate(16.824854,0.47205613)">
          <ellipse
             style="fill:#803300;fill-opacity:1;stroke-width:0.264583"
             id="path849-7"
             cx="220.82944"
             cy="87.887047"
             rx="12.901618"
             ry="12.423411" />
          <text
             xml:space="preserve"
             id="text881-5"
             style="font-style:normal;font-weight:normal;font-size:10.5833px;line-height:1.25;font-family:sans-serif;white-space:pre;shape-inside:url(#rect883-6);fill:#000000;fill-opacity:1;stroke:none"
             transform="translate(154.92877,1.2590812)"><tspan
               x="57.943359"
               y="89.465302"
               id="tspan867">Ión</tspan></text>
        </g>
        <path
           style="opacity:0.765362;fill:url(#radialGradient18402);fill-opacity:1;stroke:url(#radialGradient19432);stroke-width:0.264583px;stroke-linecap:butt;stroke-linejoin:miter;stroke-opacity:1;filter:url(#filter19384)"
           d="m 208.58081,78.543919 c 1.28673,-1.40937 3.06296,-2.266826 4.2353,-3.790845 0.43578,-0.566496 0.54974,-1.318093 0.97856,-1.882198 2.43019,-3.196846 6.05635,-8.113175 4.7943,-12.521774 -1.49097,-5.208325 -11.75473,-8.367556 -16.28276,-9.301897 -1.15643,-0.238626 -2.21698,-0.162979 -3.355,-0.389425 -2.74873,-0.546949 -6.66021,-1.529821 -9.50586,-0.649031 -8.8209,2.730257 -18.8971,14.417929 -21.04552,23.063142 -0.3532,1.421238 -0.16609,2.990405 -0.27555,4.445111 -0.29197,3.879868 -0.29643,7.85282 -0.67489,11.71875 -0.36044,3.681884 -0.51245,7.98417 0.13979,11.617708 0.22993,1.28091 1.52222,2.80295 2.09688,3.95911 2.60274,5.23643 5.31612,10.31885 10.62419,13.37009 6.42586,3.69379 12.99569,8.02314 20.26982,9.86532 2.47567,0.62697 10.33587,0.30245 12.39302,-0.41387 1.19703,-0.41682 2.29581,-1.17229 3.4948,-1.55768 0.4441,-0.14275 0.94353,0.0406 1.39792,-0.0649 0.86885,-0.20169 4.6046,-1.80208 5.08402,-2.60472 0.46786,-0.78329 0.39193,-2.10166 0.48892,-3.00563 0.74428,-6.93708 -0.76238,-10.82601 -4.43499,-16.79402 -2.26794,-3.68543 -8.39026,-8.375133 -11.74251,-11.487913 -0.36687,-0.340659 -2.37648,-1.724271 -2.37648,-2.268072 0,-0.400243 -0.39625,-1.708589 -0.58046,-2.137317 -0.13671,-0.31817 0.0661,-0.864579 0,-1.200018 -0.5638,-2.862009 -0.0328,-4.991793 1.93044,-7.121639 1.07976,-1.171379 0.42065,-1.632452 2.34606,-0.848272 z"
           id="path14898" />
        <text
           xml:space="preserve"
           id="text19072"
           style="font-style:normal;font-weight:normal;font-size:10.5833px;line-height:1.25;font-family:sans-serif;white-space:pre;shape-inside:url(#rect19074);fill:#000000;fill-opacity:1;stroke:none"><tspan
             x="161.25586"
             y="80.945771"
             id="tspan869">Densidad </tspan><tspan
             x="161.25586"
             y="94.174897"
             id="tspan871">electrónica</tspan></text>
      </g>
      <text
         xml:space="preserve"
         id="text19534"
         style="font-style:normal;font-weight:normal;font-size:10.5833px;line-height:1.25;font-family:sans-serif;white-space:pre;shape-inside:url(#rect19536);fill:#000000;fill-opacity:1;stroke:none"
         transform="translate(-0.53136706,9.9504706)"><tspan
           x="15.492188"
           y="125.44968"
           id="tspan873">Perspectiva </tspan><tspan
           x="15.492188"
           y="138.6788"
           id="tspan875">de muchos </tspan><tspan
           x="15.492188"
           y="151.90793"
           id="tspan877">cuerpos</tspan></text>
      <text
         xml:space="preserve"
         id="text19540"
         style="font-style:normal;font-weight:normal;font-size:10.5833px;line-height:1.25;font-family:sans-serif;white-space:pre;shape-inside:url(#rect19542);fill:#000000;fill-opacity:1;stroke:none"><tspan
           x="166.45508"
           y="143.93796"
           id="tspan879">Perspectiva </tspan><tspan
           x="166.45508"
           y="157.16708"
           id="tspan881">de DFT</tspan></text>
    </g>
    <text
       xml:space="preserve"
       id="text19546"
       style="font-style:normal;font-weight:normal;font-size:10.5833px;line-height:1.25;font-family:sans-serif;white-space:pre;shape-inside:url(#rect19548);fill:#000000;fill-opacity:1;stroke:none" />
  </g>
</svg>
